<svg width="172" height="441" viewBox="0 0 172 441" fill="none" xmlns="http://www.w3.org/2000/svg">
<path d="M9.44824 59.3311V60.0049C9.44824 60.8057 9.34814 61.5234 9.14795 62.1582C8.94775 62.793 8.65967 63.3325 8.28369 63.7769C7.90771 64.2212 7.45605 64.5605 6.92871 64.7949C6.40625 65.0293 5.82031 65.1465 5.1709 65.1465C4.54102 65.1465 3.9624 65.0293 3.43506 64.7949C2.9126 64.5605 2.4585 64.2212 2.07275 63.7769C1.69189 63.3325 1.39648 62.793 1.18652 62.1582C0.976562 61.5234 0.871582 60.8057 0.871582 60.0049V59.3311C0.871582 58.5303 0.974121 57.8149 1.1792 57.1851C1.38916 56.5503 1.68457 56.0107 2.06543 55.5664C2.44629 55.1172 2.89795 54.7754 3.42041 54.541C3.94775 54.3066 4.52637 54.1895 5.15625 54.1895C5.80566 54.1895 6.3916 54.3066 6.91406 54.541C7.44141 54.7754 7.89307 55.1172 8.26904 55.5664C8.6499 56.0107 8.94043 56.5503 9.14062 57.1851C9.3457 57.8149 9.44824 58.5303 9.44824 59.3311ZM8.04932 60.0049V59.3164C8.04932 58.6816 7.9834 58.1201 7.85156 57.6318C7.72461 57.1436 7.53662 56.7334 7.2876 56.4014C7.03857 56.0693 6.7334 55.8179 6.37207 55.647C6.01562 55.4761 5.61035 55.3906 5.15625 55.3906C4.7168 55.3906 4.31885 55.4761 3.9624 55.647C3.61084 55.8179 3.30811 56.0693 3.0542 56.4014C2.80518 56.7334 2.6123 57.1436 2.47559 57.6318C2.33887 58.1201 2.27051 58.6816 2.27051 59.3164V60.0049C2.27051 60.6445 2.33887 61.2109 2.47559 61.7041C2.6123 62.1924 2.80762 62.605 3.06152 62.9419C3.32031 63.2739 3.62549 63.5254 3.97705 63.6963C4.3335 63.8672 4.73145 63.9526 5.1709 63.9526C5.62988 63.9526 6.0376 63.8672 6.39404 63.6963C6.75049 63.5254 7.05078 63.2739 7.29492 62.9419C7.54395 62.605 7.73193 62.1924 7.85889 61.7041C7.98584 61.2109 8.04932 60.6445 8.04932 60.0049ZM14.0895 63.7769L16.2575 57.0752H17.6418L14.7927 65H13.8845L14.0895 63.7769ZM12.2804 57.0752L14.5143 63.8135L14.6681 65H13.7599L10.8888 57.0752H12.2804ZM22.4515 65.1465C21.8998 65.1465 21.3993 65.0537 20.9501 64.8682C20.5057 64.6777 20.1224 64.4116 19.8002 64.0698C19.4828 63.728 19.2386 63.3228 19.0677 62.854C18.8968 62.3853 18.8114 61.8726 18.8114 61.3159V61.0083C18.8114 60.3638 18.9066 59.79 19.097 59.2871C19.2875 58.7793 19.5462 58.3496 19.8734 57.998C20.2005 57.6465 20.5716 57.3804 20.9867 57.1997C21.4017 57.019 21.8314 56.9287 22.2757 56.9287C22.8421 56.9287 23.3304 57.0264 23.7406 57.2217C24.1556 57.417 24.495 57.6904 24.7587 58.042C25.0223 58.3887 25.2176 58.7988 25.3446 59.2725C25.4715 59.7412 25.535 60.2539 25.535 60.8105V61.4185H19.6171V60.3125H24.18V60.21C24.1605 59.8584 24.0873 59.5166 23.9603 59.1846C23.8382 58.8525 23.6429 58.5791 23.3744 58.3643C23.1058 58.1494 22.7396 58.042 22.2757 58.042C21.9681 58.042 21.6849 58.1079 21.4261 58.2397C21.1673 58.3667 20.9452 58.5571 20.7596 58.811C20.5741 59.0649 20.43 59.375 20.3275 59.7412C20.225 60.1074 20.1737 60.5298 20.1737 61.0083V61.3159C20.1737 61.6919 20.225 62.0459 20.3275 62.3779C20.4349 62.7051 20.5887 62.9932 20.7889 63.2422C20.994 63.4912 21.2406 63.6865 21.5287 63.8281C21.8216 63.9697 22.1537 64.0405 22.5248 64.0405C23.0033 64.0405 23.4086 63.9429 23.7406 63.7476C24.0726 63.5522 24.3631 63.291 24.6122 62.9639L25.4325 63.6157C25.2616 63.8745 25.0443 64.1211 24.7806 64.3555C24.517 64.5898 24.1922 64.7803 23.8065 64.9268C23.4256 65.0732 22.974 65.1465 22.4515 65.1465ZM28.792 58.3203V65H27.437V57.0752H28.7554L28.792 58.3203ZM31.2676 57.0312L31.2603 58.291C31.148 58.2666 31.0406 58.252 30.938 58.2471C30.8404 58.2373 30.7281 58.2324 30.6011 58.2324C30.2886 58.2324 30.0127 58.2812 29.7735 58.3789C29.5342 58.4766 29.3316 58.6133 29.1656 58.7891C28.9995 58.9648 28.8677 59.1748 28.7701 59.4189C28.6773 59.6582 28.6162 59.9219 28.587 60.21L28.2061 60.4297C28.2061 59.9512 28.2525 59.502 28.3453 59.082C28.4429 58.6621 28.5918 58.291 28.792 57.9688C28.9922 57.6416 29.2461 57.3877 29.5537 57.207C29.8662 57.0215 30.2373 56.9287 30.667 56.9287C30.7647 56.9287 30.877 56.9409 31.0039 56.9653C31.1309 56.9849 31.2188 57.0068 31.2676 57.0312ZM35.3816 63.7769L37.5495 57.0752H38.9338L36.0847 65H35.1765L35.3816 63.7769ZM33.5725 57.0752L35.8064 63.8135L35.9602 65H35.052L32.1809 57.0752H33.5725ZM42.0297 57.0752V65H40.6674V57.0752H42.0297ZM40.5648 54.9731C40.5648 54.7534 40.6308 54.5679 40.7626 54.4165C40.8993 54.2651 41.0995 54.1895 41.3632 54.1895C41.622 54.1895 41.8197 54.2651 41.9564 54.4165C42.098 54.5679 42.1688 54.7534 42.1688 54.9731C42.1688 55.1831 42.098 55.3638 41.9564 55.5151C41.8197 55.6616 41.622 55.7349 41.3632 55.7349C41.0995 55.7349 40.8993 55.6616 40.7626 55.5151C40.6308 55.3638 40.5648 55.1831 40.5648 54.9731ZM47.8136 65.1465C47.2618 65.1465 46.7613 65.0537 46.3121 64.8682C45.8678 64.6777 45.4845 64.4116 45.1622 64.0698C44.8448 63.728 44.6007 63.3228 44.4298 62.854C44.2589 62.3853 44.1734 61.8726 44.1734 61.3159V61.0083C44.1734 60.3638 44.2686 59.79 44.4591 59.2871C44.6495 58.7793 44.9083 58.3496 45.2354 57.998C45.5626 57.6465 45.9337 57.3804 46.3487 57.1997C46.7637 57.019 47.1934 56.9287 47.6378 56.9287C48.2042 56.9287 48.6925 57.0264 49.1026 57.2217C49.5177 57.417 49.857 57.6904 50.1207 58.042C50.3844 58.3887 50.5797 58.7988 50.7066 59.2725C50.8336 59.7412 50.897 60.2539 50.897 60.8105V61.4185H44.9791V60.3125H49.5421V60.21C49.5225 59.8584 49.4493 59.5166 49.3223 59.1846C49.2003 58.8525 49.005 58.5791 48.7364 58.3643C48.4678 58.1494 48.1016 58.042 47.6378 58.042C47.3302 58.042 47.047 58.1079 46.7882 58.2397C46.5294 58.3667 46.3072 58.5571 46.1217 58.811C45.9361 59.0649 45.7921 59.375 45.6895 59.7412C45.587 60.1074 45.5357 60.5298 45.5357 61.0083V61.3159C45.5357 61.6919 45.587 62.0459 45.6895 62.3779C45.797 62.7051 45.9508 62.9932 46.151 63.2422C46.356 63.4912 46.6026 63.6865 46.8907 63.8281C47.1837 63.9697 47.5157 64.0405 47.8868 64.0405C48.3653 64.0405 48.7706 63.9429 49.1026 63.7476C49.4346 63.5522 49.7252 63.291 49.9742 62.9639L50.7945 63.6157C50.6236 63.8745 50.4063 64.1211 50.1427 64.3555C49.879 64.5898 49.5543 64.7803 49.1685 64.9268C48.7877 65.0732 48.336 65.1465 47.8136 65.1465ZM54.8059 63.5938L56.8421 57.0752H57.7356L57.5598 58.3716L55.4871 65H54.6155L54.8059 63.5938ZM53.4363 57.0752L55.1721 63.667L55.2966 65H54.3811L52.0813 57.0752H53.4363ZM59.6838 63.6157L61.3391 57.0752H62.6868L60.387 65H59.4788L59.6838 63.6157ZM57.9334 57.0752L59.9255 63.4839L60.1526 65H59.2883L57.157 58.3569L56.9812 57.0752H57.9334Z" fill="#6C8989"/>
<path d="M8.20312 138.921V140.071H2.43164V138.921H8.20312ZM2.65137 134.336V145H1.23779V134.336H2.65137ZM9.43359 134.336V145H8.02734V134.336H9.43359ZM11.7018 141.125V140.957C11.7018 140.386 11.7848 139.856 11.9509 139.368C12.1169 138.875 12.3561 138.447 12.6686 138.086C12.9811 137.72 13.3596 137.437 13.8039 137.236C14.2482 137.031 14.7463 136.929 15.298 136.929C15.8547 136.929 16.3552 137.031 16.7995 137.236C17.2487 137.437 17.6296 137.72 17.9421 138.086C18.2595 138.447 18.5012 138.875 18.6672 139.368C18.8332 139.856 18.9162 140.386 18.9162 140.957V141.125C18.9162 141.697 18.8332 142.227 18.6672 142.715C18.5012 143.203 18.2595 143.63 17.9421 143.997C17.6296 144.358 17.2512 144.641 16.8068 144.846C16.3674 145.046 15.8693 145.146 15.3127 145.146C14.756 145.146 14.2555 145.046 13.8112 144.846C13.3669 144.641 12.986 144.358 12.6686 143.997C12.3561 143.63 12.1169 143.203 11.9509 142.715C11.7848 142.227 11.7018 141.697 11.7018 141.125ZM13.0568 140.957V141.125C13.0568 141.521 13.1032 141.895 13.196 142.246C13.2887 142.593 13.4279 142.9 13.6135 143.169C13.8039 143.438 14.0407 143.65 14.3239 143.806C14.6071 143.958 14.9367 144.033 15.3127 144.033C15.6838 144.033 16.0085 143.958 16.2868 143.806C16.57 143.65 16.8044 143.438 16.9899 143.169C17.1755 142.9 17.3146 142.593 17.4074 142.246C17.5051 141.895 17.5539 141.521 17.5539 141.125V140.957C17.5539 140.566 17.5051 140.198 17.4074 139.851C17.3146 139.5 17.173 139.189 16.9826 138.921C16.7971 138.647 16.5627 138.433 16.2795 138.276C16.0012 138.12 15.674 138.042 15.298 138.042C14.9269 138.042 14.5998 138.12 14.3166 138.276C14.0383 138.433 13.8039 138.647 13.6135 138.921C13.4279 139.189 13.2887 139.5 13.196 139.851C13.1032 140.198 13.0568 140.566 13.0568 140.957ZM22.2831 138.65V145H20.9208V137.075H22.2098L22.2831 138.65ZM22.0047 140.737L21.3749 140.715C21.3797 140.173 21.4505 139.673 21.5873 139.214C21.724 138.75 21.9266 138.347 22.1952 138.005C22.4637 137.664 22.7982 137.4 23.1986 137.214C23.599 137.024 24.0629 136.929 24.5902 136.929C24.9613 136.929 25.3031 136.982 25.6156 137.09C25.9281 137.192 26.1991 137.356 26.4286 137.581C26.6581 137.805 26.8363 138.093 26.9632 138.445C27.0902 138.796 27.1537 139.221 27.1537 139.719V145H25.7987V139.785C25.7987 139.37 25.7279 139.038 25.5863 138.789C25.4496 138.54 25.2543 138.359 25.0004 138.247C24.7464 138.13 24.4486 138.071 24.1068 138.071C23.7064 138.071 23.3719 138.142 23.1034 138.284C22.8348 138.425 22.62 138.621 22.4588 138.87C22.2977 139.119 22.1805 139.404 22.1073 139.727C22.0389 140.044 22.0047 140.381 22.0047 140.737ZM27.139 139.99L26.2308 140.269C26.2357 139.834 26.3065 139.417 26.4432 139.016C26.5848 138.616 26.7875 138.259 27.0511 137.947C27.3197 137.634 27.6493 137.388 28.0399 137.207C28.4305 137.021 28.8773 136.929 29.3802 136.929C29.805 136.929 30.181 136.985 30.5082 137.097C30.8402 137.209 31.1185 137.383 31.3431 137.617C31.5726 137.847 31.746 138.142 31.8631 138.503C31.9803 138.865 32.0389 139.294 32.0389 139.792V145H30.6766V139.778C30.6766 139.333 30.6058 138.989 30.4642 138.745C30.3275 138.496 30.1322 138.323 29.8783 138.225C29.6293 138.123 29.3314 138.071 28.9847 138.071C28.6869 138.071 28.4232 138.123 28.1937 138.225C27.9642 138.328 27.7713 138.469 27.6151 138.65C27.4588 138.826 27.3392 139.028 27.2562 139.258C27.1781 139.487 27.139 139.731 27.139 139.99ZM37.6983 145.146C37.1465 145.146 36.646 145.054 36.1968 144.868C35.7525 144.678 35.3692 144.412 35.0469 144.07C34.7295 143.728 34.4854 143.323 34.3145 142.854C34.1436 142.385 34.0581 141.873 34.0581 141.316V141.008C34.0581 140.364 34.1534 139.79 34.3438 139.287C34.5342 138.779 34.793 138.35 35.1202 137.998C35.4473 137.646 35.8184 137.38 36.2334 137.2C36.6485 137.019 37.0782 136.929 37.5225 136.929C38.0889 136.929 38.5772 137.026 38.9873 137.222C39.4024 137.417 39.7417 137.69 40.0054 138.042C40.2691 138.389 40.4644 138.799 40.5913 139.272C40.7183 139.741 40.7818 140.254 40.7818 140.811V141.418H34.8638V140.312H39.4268V140.21C39.4073 139.858 39.334 139.517 39.2071 139.185C39.085 138.853 38.8897 138.579 38.6211 138.364C38.3526 138.149 37.9864 138.042 37.5225 138.042C37.2149 138.042 36.9317 138.108 36.6729 138.24C36.4141 138.367 36.1919 138.557 36.0064 138.811C35.8208 139.065 35.6768 139.375 35.5743 139.741C35.4717 140.107 35.4204 140.53 35.4204 141.008V141.316C35.4204 141.692 35.4717 142.046 35.5743 142.378C35.6817 142.705 35.8355 142.993 36.0357 143.242C36.2408 143.491 36.4873 143.687 36.7754 143.828C37.0684 143.97 37.4004 144.041 37.7715 144.041C38.25 144.041 38.6553 143.943 38.9873 143.748C39.3194 143.552 39.6099 143.291 39.8589 142.964L40.6792 143.616C40.5083 143.875 40.2911 144.121 40.0274 144.355C39.7637 144.59 39.439 144.78 39.0533 144.927C38.6724 145.073 38.2207 145.146 37.6983 145.146ZM53.5653 143.887V145H46.5854V144.026L50.079 140.137C50.5087 139.658 50.8407 139.253 51.0751 138.921C51.3144 138.584 51.4804 138.284 51.5731 138.02C51.6708 137.751 51.7196 137.478 51.7196 137.2C51.7196 136.848 51.6464 136.531 51.4999 136.248C51.3583 135.959 51.1483 135.73 50.87 135.559C50.5917 135.388 50.2548 135.303 49.8593 135.303C49.3856 135.303 48.9901 135.396 48.6728 135.581C48.3603 135.762 48.1259 136.016 47.9696 136.343C47.8134 136.67 47.7353 137.046 47.7353 137.471H46.3803C46.3803 136.87 46.5121 136.321 46.7758 135.823C47.0395 135.325 47.4301 134.929 47.9477 134.636C48.4652 134.338 49.1024 134.189 49.8593 134.189C50.5331 134.189 51.1093 134.309 51.5878 134.548C52.0663 134.783 52.4325 135.115 52.6864 135.544C52.9452 135.969 53.0746 136.467 53.0746 137.039C53.0746 137.351 53.0209 137.668 52.9135 137.991C52.8109 138.308 52.6669 138.625 52.4813 138.943C52.3007 139.26 52.0883 139.573 51.8441 139.88C51.6049 140.188 51.3485 140.491 51.0751 140.789L48.2187 143.887H53.5653Z" fill="#6C8989"/>
<path d="M4.82617 221.097H2.16699V220.023H4.82617C5.34115 220.023 5.75814 219.941 6.07715 219.777C6.39616 219.613 6.62858 219.385 6.77441 219.094C6.9248 218.802 7 218.469 7 218.096C7 217.754 6.9248 217.433 6.77441 217.132C6.62858 216.831 6.39616 216.59 6.07715 216.407C5.75814 216.22 5.34115 216.127 4.82617 216.127H2.47461V225H1.15527V215.047H4.82617C5.57812 215.047 6.21387 215.177 6.7334 215.437C7.25293 215.696 7.64714 216.056 7.91602 216.517C8.1849 216.972 8.31934 217.494 8.31934 218.082C8.31934 218.72 8.1849 219.265 7.91602 219.716C7.64714 220.167 7.25293 220.511 6.7334 220.748C6.21387 220.98 5.57812 221.097 4.82617 221.097ZM11.3805 218.766V225H10.1159V217.604H11.3464L11.3805 218.766ZM13.6911 217.562L13.6843 218.738C13.5794 218.715 13.4792 218.702 13.3835 218.697C13.2923 218.688 13.1875 218.684 13.069 218.684C12.7774 218.684 12.5199 218.729 12.2966 218.82C12.0733 218.911 11.8841 219.039 11.7292 219.203C11.5742 219.367 11.4512 219.563 11.36 219.791C11.2735 220.014 11.2165 220.26 11.1891 220.529L10.8337 220.734C10.8337 220.288 10.877 219.868 10.9636 219.477C11.0547 219.085 11.1937 218.738 11.3805 218.438C11.5674 218.132 11.8044 217.895 12.0915 217.727C12.3832 217.553 12.7295 217.467 13.1305 217.467C13.2217 217.467 13.3265 217.478 13.445 217.501C13.5635 217.519 13.6455 217.54 13.6911 217.562ZM16.5541 217.604V225H15.2826V217.604H16.5541ZM15.1869 215.642C15.1869 215.437 15.2484 215.263 15.3714 215.122C15.499 214.981 15.6859 214.91 15.932 214.91C16.1735 214.91 16.3581 214.981 16.4857 215.122C16.6179 215.263 16.6839 215.437 16.6839 215.642C16.6839 215.838 16.6179 216.006 16.4857 216.147C16.3581 216.284 16.1735 216.353 15.932 216.353C15.6859 216.353 15.499 216.284 15.3714 216.147C15.2484 216.006 15.1869 215.838 15.1869 215.642ZM21.8643 224.098C22.1651 224.098 22.4431 224.036 22.6983 223.913C22.9535 223.79 23.1631 223.621 23.3272 223.407C23.4912 223.188 23.5847 222.94 23.6075 222.662H24.8106C24.7878 223.1 24.6397 223.507 24.3662 223.886C24.0974 224.259 23.7442 224.562 23.3067 224.795C22.8692 225.023 22.3884 225.137 21.8643 225.137C21.3083 225.137 20.823 225.039 20.4082 224.843C19.9981 224.647 19.6563 224.378 19.3829 224.036C19.114 223.694 18.9112 223.302 18.7745 222.86C18.6423 222.414 18.5762 221.942 18.5762 221.445V221.158C18.5762 220.661 18.6423 220.192 18.7745 219.75C18.9112 219.303 19.114 218.909 19.3829 218.567C19.6563 218.226 19.9981 217.957 20.4082 217.761C20.823 217.565 21.3083 217.467 21.8643 217.467C22.4431 217.467 22.9489 217.585 23.3819 217.822C23.8148 218.055 24.1543 218.374 24.4004 218.779C24.6511 219.18 24.7878 219.636 24.8106 220.146H23.6075C23.5847 219.841 23.4981 219.565 23.3477 219.319C23.2019 219.073 23.0013 218.877 22.7461 218.731C22.4955 218.581 22.2015 218.506 21.8643 218.506C21.4769 218.506 21.1511 218.583 20.8868 218.738C20.627 218.889 20.4196 219.094 20.2647 219.354C20.1143 219.609 20.0049 219.894 19.9366 220.208C19.8728 220.518 19.8409 220.835 19.8409 221.158V221.445C19.8409 221.769 19.8728 222.088 19.9366 222.402C20.0004 222.717 20.1075 223.002 20.2579 223.257C20.4128 223.512 20.6202 223.717 20.8799 223.872C21.1442 224.022 21.4724 224.098 21.8643 224.098ZM27.9265 217.604V225H26.655V217.604H27.9265ZM26.5593 215.642C26.5593 215.437 26.6208 215.263 26.7439 215.122C26.8715 214.981 27.0583 214.91 27.3044 214.91C27.546 214.91 27.7305 214.981 27.8581 215.122C27.9903 215.263 28.0564 215.437 28.0564 215.642C28.0564 215.838 27.9903 216.006 27.8581 216.147C27.7305 216.284 27.546 216.353 27.3044 216.353C27.0583 216.353 26.8715 216.284 26.7439 216.147C26.6208 216.006 26.5593 215.838 26.5593 215.642ZM31.5414 219.183V225H30.2768V217.604H31.473L31.5414 219.183ZM31.2406 221.021L30.7143 221.001C30.7188 220.495 30.794 220.028 30.9398 219.6C31.0857 219.167 31.2908 218.791 31.5551 218.472C31.8194 218.153 32.1339 217.907 32.4984 217.733C32.8676 217.556 33.2755 217.467 33.7221 217.467C34.0867 217.467 34.4148 217.517 34.7064 217.617C34.9981 217.713 35.2465 217.868 35.4516 218.082C35.6612 218.296 35.8207 218.574 35.9301 218.916C36.0395 219.253 36.0941 219.666 36.0941 220.153V225H34.8227V220.14C34.8227 219.752 34.7657 219.442 34.6518 219.21C34.5378 218.973 34.3715 218.802 34.1527 218.697C33.934 218.588 33.6651 218.533 33.3461 218.533C33.0316 218.533 32.7445 218.599 32.4848 218.731C32.2296 218.864 32.0085 219.046 31.8217 219.278C31.6394 219.511 31.4958 219.777 31.391 220.078C31.2908 220.374 31.2406 220.689 31.2406 221.021ZM43.127 217.604H44.2755V224.843C44.2755 225.494 44.1433 226.05 43.879 226.511C43.6147 226.971 43.2455 227.32 42.7716 227.557C42.3022 227.798 41.7598 227.919 41.1446 227.919C40.8894 227.919 40.5886 227.878 40.2423 227.796C39.9005 227.718 39.5632 227.584 39.2305 227.393C38.9024 227.206 38.6267 226.953 38.4034 226.634L39.0665 225.882C39.3764 226.256 39.6999 226.515 40.0372 226.661C40.379 226.807 40.7162 226.88 41.0489 226.88C41.4499 226.88 41.7963 226.805 42.088 226.654C42.3796 226.504 42.6052 226.281 42.7647 225.984C42.9288 225.693 43.0108 225.333 43.0108 224.904V219.23L43.127 217.604ZM38.0343 221.384V221.24C38.0343 220.675 38.1003 220.162 38.2325 219.702C38.3692 219.237 38.5629 218.839 38.8136 218.506C39.0688 218.173 39.3764 217.918 39.7364 217.74C40.0964 217.558 40.502 217.467 40.9532 217.467C41.418 217.467 41.8236 217.549 42.17 217.713C42.5209 217.872 42.8171 218.107 43.0587 218.417C43.3048 218.722 43.4984 219.091 43.6397 219.524C43.781 219.957 43.879 220.447 43.9337 220.994V221.623C43.8835 222.165 43.7856 222.653 43.6397 223.086C43.4984 223.519 43.3048 223.888 43.0587 224.193C42.8171 224.499 42.5209 224.733 42.17 224.897C41.8191 225.057 41.4089 225.137 40.9395 225.137C40.4975 225.137 40.0964 225.043 39.7364 224.856C39.3809 224.67 39.0756 224.408 38.8204 224.07C38.5652 223.733 38.3692 223.337 38.2325 222.881C38.1003 222.421 38.0343 221.922 38.0343 221.384ZM39.2989 221.24V221.384C39.2989 221.753 39.3354 222.099 39.4083 222.423C39.4858 222.746 39.602 223.031 39.7569 223.277C39.9164 223.523 40.1192 223.717 40.3653 223.858C40.6114 223.995 40.9053 224.063 41.2471 224.063C41.6664 224.063 42.0128 223.975 42.2862 223.797C42.5596 223.619 42.7761 223.384 42.9356 223.093C43.0997 222.801 43.2273 222.484 43.3184 222.143V220.495C43.2683 220.244 43.1908 220.003 43.086 219.771C42.9858 219.534 42.8536 219.324 42.6895 219.142C42.53 218.955 42.3318 218.807 42.0948 218.697C41.8578 218.588 41.5798 218.533 41.2608 218.533C40.9145 218.533 40.616 218.606 40.3653 218.752C40.1192 218.893 39.9164 219.089 39.7569 219.34C39.602 219.586 39.4858 219.873 39.4083 220.201C39.3354 220.525 39.2989 220.871 39.2989 221.24ZM54.3286 214.992V225H53.0639V216.571L50.5141 217.501V216.359L54.1303 214.992H54.3286Z" fill="#6C8989"/>
<path d="M10.0781 10.9531V11.6719C10.0781 12.526 9.97135 13.2917 9.75781 13.9688C9.54427 14.6458 9.23698 15.2214 8.83594 15.6953C8.4349 16.1693 7.95312 16.5312 7.39062 16.7812C6.83333 17.0312 6.20833 17.1562 5.51562 17.1562C4.84375 17.1562 4.22656 17.0312 3.66406 16.7812C3.10677 16.5312 2.6224 16.1693 2.21094 15.6953C1.80469 15.2214 1.48958 14.6458 1.26562 13.9688C1.04167 13.2917 0.929688 12.526 0.929688 11.6719V10.9531C0.929688 10.099 1.03906 9.33594 1.25781 8.66406C1.48177 7.98698 1.79688 7.41146 2.20312 6.9375C2.60938 6.45833 3.09115 6.09375 3.64844 5.84375C4.21094 5.59375 4.82812 5.46875 5.5 5.46875C6.19271 5.46875 6.81771 5.59375 7.375 5.84375C7.9375 6.09375 8.41927 6.45833 8.82031 6.9375C9.22656 7.41146 9.53646 7.98698 9.75 8.66406C9.96875 9.33594 10.0781 10.099 10.0781 10.9531ZM8.58594 11.6719V10.9375C8.58594 10.2604 8.51562 9.66146 8.375 9.14062C8.23958 8.61979 8.03906 8.18229 7.77344 7.82812C7.50781 7.47396 7.18229 7.20573 6.79688 7.02344C6.41667 6.84115 5.98438 6.75 5.5 6.75C5.03125 6.75 4.60677 6.84115 4.22656 7.02344C3.85156 7.20573 3.52865 7.47396 3.25781 7.82812C2.99219 8.18229 2.78646 8.61979 2.64062 9.14062C2.49479 9.66146 2.42188 10.2604 2.42188 10.9375V11.6719C2.42188 12.3542 2.49479 12.9583 2.64062 13.4844C2.78646 14.0052 2.99479 14.4453 3.26562 14.8047C3.54167 15.1589 3.86719 15.4271 4.24219 15.6094C4.6224 15.7917 5.04688 15.8828 5.51562 15.8828C6.00521 15.8828 6.4401 15.7917 6.82031 15.6094C7.20052 15.4271 7.52083 15.1589 7.78125 14.8047C8.04688 14.4453 8.2474 14.0052 8.38281 13.4844C8.51823 12.9583 8.58594 12.3542 8.58594 11.6719ZM14.6875 15.6953L17 8.54688H18.4766L15.4375 17H14.4688L14.6875 15.6953ZM12.7578 8.54688L15.1406 15.7344L15.3047 17H14.3359L11.2734 8.54688H12.7578ZM23.2656 17.1562C22.6771 17.1562 22.1432 17.0573 21.6641 16.8594C21.1901 16.6562 20.7812 16.3724 20.4375 16.0078C20.099 15.6432 19.8385 15.2109 19.6562 14.7109C19.474 14.2109 19.3828 13.6641 19.3828 13.0703V12.7422C19.3828 12.0547 19.4844 11.4427 19.6875 10.9062C19.8906 10.3646 20.1667 9.90625 20.5156 9.53125C20.8646 9.15625 21.2604 8.8724 21.7031 8.67969C22.1458 8.48698 22.6042 8.39062 23.0781 8.39062C23.6823 8.39062 24.2031 8.49479 24.6406 8.70312C25.0833 8.91146 25.4453 9.20312 25.7266 9.57812C26.0078 9.94792 26.2161 10.3854 26.3516 10.8906C26.487 11.3906 26.5547 11.9375 26.5547 12.5312V13.1797H20.2422V12H25.1094V11.8906C25.0885 11.5156 25.0104 11.151 24.875 10.7969C24.7448 10.4427 24.5365 10.151 24.25 9.92188C23.9635 9.69271 23.5729 9.57812 23.0781 9.57812C22.75 9.57812 22.4479 9.64844 22.1719 9.78906C21.8958 9.92448 21.6589 10.1276 21.4609 10.3984C21.263 10.6693 21.1094 11 21 11.3906C20.8906 11.7812 20.8359 12.2318 20.8359 12.7422V13.0703C20.8359 13.4714 20.8906 13.849 21 14.2031C21.1146 14.5521 21.2786 14.8594 21.4922 15.125C21.7109 15.3906 21.974 15.599 22.2812 15.75C22.5938 15.901 22.9479 15.9766 23.3438 15.9766C23.8542 15.9766 24.2865 15.8724 24.6406 15.6641C24.9948 15.4557 25.3047 15.1771 25.5703 14.8281L26.4453 15.5234C26.263 15.7995 26.0312 16.0625 25.75 16.3125C25.4688 16.5625 25.1224 16.7656 24.7109 16.9219C24.3047 17.0781 23.8229 17.1562 23.2656 17.1562ZM29.6875 9.875V17H28.2422V8.54688H29.6484L29.6875 9.875ZM32.3281 8.5L32.3203 9.84375C32.2005 9.81771 32.0859 9.80208 31.9766 9.79688C31.8724 9.78646 31.7526 9.78125 31.6172 9.78125C31.2839 9.78125 30.9896 9.83333 30.7344 9.9375C30.4792 10.0417 30.263 10.1875 30.0859 10.375C29.9089 10.5625 29.7682 10.7865 29.6641 11.0469C29.5651 11.3021 29.5 11.5833 29.4688 11.8906L29.0625 12.125C29.0625 11.6146 29.112 11.1354 29.2109 10.6875C29.3151 10.2396 29.474 9.84375 29.6875 9.5C29.901 9.15104 30.1719 8.88021 30.5 8.6875C30.8333 8.48958 31.2292 8.39062 31.6875 8.39062C31.7917 8.39062 31.9115 8.40365 32.0469 8.42969C32.1823 8.45052 32.276 8.47396 32.3281 8.5ZM36.375 15.6953L38.6875 8.54688H40.1641L37.125 17H36.1562L36.375 15.6953ZM34.4453 8.54688L36.8281 15.7344L36.9922 17H36.0234L32.9609 8.54688H34.4453ZM43.125 8.54688V17H41.6719V8.54688H43.125ZM41.5625 6.30469C41.5625 6.07031 41.6328 5.8724 41.7734 5.71094C41.9193 5.54948 42.1328 5.46875 42.4141 5.46875C42.6901 5.46875 42.901 5.54948 43.0469 5.71094C43.1979 5.8724 43.2734 6.07031 43.2734 6.30469C43.2734 6.52865 43.1979 6.72135 43.0469 6.88281C42.901 7.03906 42.6901 7.11719 42.4141 7.11719C42.1328 7.11719 41.9193 7.03906 41.7734 6.88281C41.6328 6.72135 41.5625 6.52865 41.5625 6.30469ZM48.9531 17.1562C48.3646 17.1562 47.8307 17.0573 47.3516 16.8594C46.8776 16.6562 46.4688 16.3724 46.125 16.0078C45.7865 15.6432 45.526 15.2109 45.3438 14.7109C45.1615 14.2109 45.0703 13.6641 45.0703 13.0703V12.7422C45.0703 12.0547 45.1719 11.4427 45.375 10.9062C45.5781 10.3646 45.8542 9.90625 46.2031 9.53125C46.5521 9.15625 46.9479 8.8724 47.3906 8.67969C47.8333 8.48698 48.2917 8.39062 48.7656 8.39062C49.3698 8.39062 49.8906 8.49479 50.3281 8.70312C50.7708 8.91146 51.1328 9.20312 51.4141 9.57812C51.6953 9.94792 51.9036 10.3854 52.0391 10.8906C52.1745 11.3906 52.2422 11.9375 52.2422 12.5312V13.1797H45.9297V12H50.7969V11.8906C50.776 11.5156 50.6979 11.151 50.5625 10.7969C50.4323 10.4427 50.224 10.151 49.9375 9.92188C49.651 9.69271 49.2604 9.57812 48.7656 9.57812C48.4375 9.57812 48.1354 9.64844 47.8594 9.78906C47.5833 9.92448 47.3464 10.1276 47.1484 10.3984C46.9505 10.6693 46.7969 11 46.6875 11.3906C46.5781 11.7812 46.5234 12.2318 46.5234 12.7422V13.0703C46.5234 13.4714 46.5781 13.849 46.6875 14.2031C46.8021 14.5521 46.9661 14.8594 47.1797 15.125C47.3984 15.3906 47.6615 15.599 47.9688 15.75C48.2812 15.901 48.6354 15.9766 49.0312 15.9766C49.5417 15.9766 49.974 15.8724 50.3281 15.6641C50.6823 15.4557 50.9922 15.1771 51.2578 14.8281L52.1328 15.5234C51.9505 15.7995 51.7188 16.0625 51.4375 16.3125C51.1562 16.5625 50.8099 16.7656 50.3984 16.9219C49.9922 17.0781 49.5104 17.1562 48.9531 17.1562ZM56.0703 15.5L58.2422 8.54688H59.1953L59.0078 9.92969L56.7969 17H55.8672L56.0703 15.5ZM54.6094 8.54688L56.4609 15.5781L56.5938 17H55.6172L53.1641 8.54688H54.6094ZM61.2734 15.5234L63.0391 8.54688H64.4766L62.0234 17H61.0547L61.2734 15.5234ZM59.4062 8.54688L61.5312 15.3828L61.7734 17H60.8516L58.5781 9.91406L58.3906 8.54688H59.4062Z" fill="#F4F5F6"/>
<path d="M8.20312 178.921V180.071H2.43164V178.921H8.20312ZM2.65137 174.336V185H1.23779V174.336H2.65137ZM9.43359 174.336V185H8.02734V174.336H9.43359ZM11.7018 181.125V180.957C11.7018 180.386 11.7848 179.856 11.9509 179.368C12.1169 178.875 12.3561 178.447 12.6686 178.086C12.9811 177.72 13.3596 177.437 13.8039 177.236C14.2482 177.031 14.7463 176.929 15.298 176.929C15.8547 176.929 16.3552 177.031 16.7995 177.236C17.2487 177.437 17.6296 177.72 17.9421 178.086C18.2595 178.447 18.5012 178.875 18.6672 179.368C18.8332 179.856 18.9162 180.386 18.9162 180.957V181.125C18.9162 181.697 18.8332 182.227 18.6672 182.715C18.5012 183.203 18.2595 183.63 17.9421 183.997C17.6296 184.358 17.2512 184.641 16.8068 184.846C16.3674 185.046 15.8693 185.146 15.3127 185.146C14.756 185.146 14.2555 185.046 13.8112 184.846C13.3669 184.641 12.986 184.358 12.6686 183.997C12.3561 183.63 12.1169 183.203 11.9509 182.715C11.7848 182.227 11.7018 181.697 11.7018 181.125ZM13.0568 180.957V181.125C13.0568 181.521 13.1032 181.895 13.196 182.246C13.2887 182.593 13.4279 182.9 13.6135 183.169C13.8039 183.438 14.0407 183.65 14.3239 183.806C14.6071 183.958 14.9367 184.033 15.3127 184.033C15.6838 184.033 16.0085 183.958 16.2868 183.806C16.57 183.65 16.8044 183.438 16.9899 183.169C17.1755 182.9 17.3146 182.593 17.4074 182.246C17.5051 181.895 17.5539 181.521 17.5539 181.125V180.957C17.5539 180.566 17.5051 180.198 17.4074 179.851C17.3146 179.5 17.173 179.189 16.9826 178.921C16.7971 178.647 16.5627 178.433 16.2795 178.276C16.0012 178.12 15.674 178.042 15.298 178.042C14.9269 178.042 14.5998 178.12 14.3166 178.276C14.0383 178.433 13.8039 178.647 13.6135 178.921C13.4279 179.189 13.2887 179.5 13.196 179.851C13.1032 180.198 13.0568 180.566 13.0568 180.957ZM22.2831 178.65V185H20.9208V177.075H22.2098L22.2831 178.65ZM22.0047 180.737L21.3749 180.715C21.3797 180.173 21.4505 179.673 21.5873 179.214C21.724 178.75 21.9266 178.347 22.1952 178.005C22.4637 177.664 22.7982 177.4 23.1986 177.214C23.599 177.024 24.0629 176.929 24.5902 176.929C24.9613 176.929 25.3031 176.982 25.6156 177.09C25.9281 177.192 26.1991 177.356 26.4286 177.581C26.6581 177.805 26.8363 178.093 26.9632 178.445C27.0902 178.796 27.1537 179.221 27.1537 179.719V185H25.7987V179.785C25.7987 179.37 25.7279 179.038 25.5863 178.789C25.4496 178.54 25.2543 178.359 25.0004 178.247C24.7464 178.13 24.4486 178.071 24.1068 178.071C23.7064 178.071 23.3719 178.142 23.1034 178.284C22.8348 178.425 22.62 178.621 22.4588 178.87C22.2977 179.119 22.1805 179.404 22.1073 179.727C22.0389 180.044 22.0047 180.381 22.0047 180.737ZM27.139 179.99L26.2308 180.269C26.2357 179.834 26.3065 179.417 26.4432 179.016C26.5848 178.616 26.7875 178.259 27.0511 177.947C27.3197 177.634 27.6493 177.388 28.0399 177.207C28.4305 177.021 28.8773 176.929 29.3802 176.929C29.805 176.929 30.181 176.985 30.5082 177.097C30.8402 177.209 31.1185 177.383 31.3431 177.617C31.5726 177.847 31.746 178.142 31.8631 178.503C31.9803 178.865 32.0389 179.294 32.0389 179.792V185H30.6766V179.778C30.6766 179.333 30.6058 178.989 30.4642 178.745C30.3275 178.496 30.1322 178.323 29.8783 178.225C29.6293 178.123 29.3314 178.071 28.9847 178.071C28.6869 178.071 28.4232 178.123 28.1937 178.225C27.9642 178.328 27.7713 178.469 27.6151 178.65C27.4588 178.826 27.3392 179.028 27.2562 179.258C27.1781 179.487 27.139 179.731 27.139 179.99ZM37.6983 185.146C37.1465 185.146 36.646 185.054 36.1968 184.868C35.7525 184.678 35.3692 184.412 35.0469 184.07C34.7295 183.728 34.4854 183.323 34.3145 182.854C34.1436 182.385 34.0581 181.873 34.0581 181.316V181.008C34.0581 180.364 34.1534 179.79 34.3438 179.287C34.5342 178.779 34.793 178.35 35.1202 177.998C35.4473 177.646 35.8184 177.38 36.2334 177.2C36.6485 177.019 37.0782 176.929 37.5225 176.929C38.0889 176.929 38.5772 177.026 38.9873 177.222C39.4024 177.417 39.7417 177.69 40.0054 178.042C40.2691 178.389 40.4644 178.799 40.5913 179.272C40.7183 179.741 40.7818 180.254 40.7818 180.811V181.418H34.8638V180.312H39.4268V180.21C39.4073 179.858 39.334 179.517 39.2071 179.185C39.085 178.853 38.8897 178.579 38.6211 178.364C38.3526 178.149 37.9864 178.042 37.5225 178.042C37.2149 178.042 36.9317 178.108 36.6729 178.24C36.4141 178.367 36.1919 178.557 36.0064 178.811C35.8208 179.065 35.6768 179.375 35.5743 179.741C35.4717 180.107 35.4204 180.53 35.4204 181.008V181.316C35.4204 181.692 35.4717 182.046 35.5743 182.378C35.6817 182.705 35.8355 182.993 36.0357 183.242C36.2408 183.491 36.4873 183.687 36.7754 183.828C37.0684 183.97 37.4004 184.041 37.7715 184.041C38.25 184.041 38.6553 183.943 38.9873 183.748C39.3194 183.552 39.6099 183.291 39.8589 182.964L40.6792 183.616C40.5083 183.875 40.2911 184.121 40.0274 184.355C39.7637 184.59 39.439 184.78 39.0533 184.927C38.6724 185.073 38.2207 185.146 37.6983 185.146ZM48.5556 179.001H49.5224C49.996 179.001 50.3866 178.923 50.6942 178.767C51.0067 178.606 51.2387 178.389 51.39 178.115C51.5463 177.837 51.6244 177.524 51.6244 177.178C51.6244 176.768 51.5561 176.423 51.4193 176.145C51.2826 175.867 51.0775 175.657 50.8041 175.515C50.5307 175.374 50.184 175.303 49.7641 175.303C49.3832 175.303 49.0463 175.378 48.7533 175.53C48.4652 175.676 48.2382 175.886 48.0722 176.16C47.911 176.433 47.8305 176.755 47.8305 177.126H46.4755C46.4755 176.584 46.6122 176.091 46.8856 175.647C47.1591 175.203 47.5424 174.849 48.0355 174.585C48.5336 174.321 49.1098 174.189 49.7641 174.189C50.4086 174.189 50.9726 174.304 51.456 174.534C51.9394 174.758 52.3153 175.095 52.5839 175.544C52.8524 175.989 52.9867 176.543 52.9867 177.207C52.9867 177.476 52.9232 177.764 52.7963 178.071C52.6742 178.374 52.4813 178.657 52.2177 178.921C51.9589 179.185 51.622 179.402 51.2069 179.573C50.7919 179.739 50.2938 179.822 49.7128 179.822H48.5556V179.001ZM48.5556 180.115V179.302H49.7128C50.3915 179.302 50.953 179.382 51.3974 179.543C51.8417 179.705 52.1908 179.919 52.4447 180.188C52.7035 180.457 52.8842 180.752 52.9867 181.074C53.0941 181.392 53.1479 181.709 53.1479 182.026C53.1479 182.524 53.0624 182.966 52.8915 183.352C52.7255 183.738 52.4887 184.065 52.1811 184.333C51.8783 184.602 51.5219 184.805 51.1117 184.941C50.7016 185.078 50.2548 185.146 49.7714 185.146C49.3075 185.146 48.8705 185.081 48.4604 184.949C48.0551 184.817 47.6962 184.626 47.3837 184.377C47.0712 184.124 46.827 183.813 46.6513 183.447C46.4755 183.076 46.3876 182.654 46.3876 182.18H47.7426C47.7426 182.551 47.8231 182.876 47.9843 183.154C48.1503 183.433 48.3847 183.65 48.6874 183.806C48.995 183.958 49.3563 184.033 49.7714 184.033C50.1864 184.033 50.5429 183.962 50.8407 183.821C51.1435 183.674 51.3754 183.455 51.5365 183.162C51.7025 182.869 51.7855 182.5 51.7855 182.056C51.7855 181.611 51.6928 181.248 51.5072 180.964C51.3217 180.676 51.058 180.464 50.7162 180.327C50.3793 180.186 49.9813 180.115 49.5224 180.115H48.5556Z" fill="#6C8989"/>
<path d="M7.65625 99.3262V100.399H2.26953V99.3262H7.65625ZM2.47461 95.0469V105H1.15527V95.0469H2.47461ZM8.80469 95.0469V105H7.49219V95.0469H8.80469ZM10.943 101.384V101.227C10.943 100.693 11.0205 100.199 11.1755 99.7432C11.3304 99.2829 11.5537 98.8841 11.8454 98.5469C12.1371 98.2051 12.4902 97.9408 12.905 97.7539C13.3197 97.5625 13.7845 97.4668 14.2995 97.4668C14.819 97.4668 15.2861 97.5625 15.7009 97.7539C16.1201 97.9408 16.4756 98.2051 16.7673 98.5469C17.0635 98.8841 17.2891 99.2829 17.444 99.7432C17.599 100.199 17.6764 100.693 17.6764 101.227V101.384C17.6764 101.917 17.599 102.411 17.444 102.867C17.2891 103.323 17.0635 103.722 16.7673 104.063C16.4756 104.401 16.1224 104.665 15.7077 104.856C15.2975 105.043 14.8327 105.137 14.3132 105.137C13.7936 105.137 13.3265 105.043 12.9118 104.856C12.4971 104.665 12.1416 104.401 11.8454 104.063C11.5537 103.722 11.3304 103.323 11.1755 102.867C11.0205 102.411 10.943 101.917 10.943 101.384ZM12.2077 101.227V101.384C12.2077 101.753 12.251 102.102 12.3376 102.43C12.4242 102.753 12.554 103.04 12.7272 103.291C12.905 103.542 13.126 103.74 13.3903 103.886C13.6546 104.027 13.9623 104.098 14.3132 104.098C14.6595 104.098 14.9626 104.027 15.2223 103.886C15.4867 103.74 15.7054 103.542 15.8786 103.291C16.0518 103.04 16.1817 102.753 16.2682 102.43C16.3594 102.102 16.405 101.753 16.405 101.384V101.227C16.405 100.862 16.3594 100.518 16.2682 100.194C16.1817 99.8662 16.0495 99.5768 15.8718 99.3262C15.6986 99.071 15.4798 98.8704 15.2155 98.7246C14.9557 98.5788 14.6504 98.5059 14.2995 98.5059C13.9531 98.5059 13.6478 98.5788 13.3835 98.7246C13.1237 98.8704 12.905 99.071 12.7272 99.3262C12.554 99.5768 12.4242 99.8662 12.3376 100.194C12.251 100.518 12.2077 100.862 12.2077 101.227ZM20.8402 99.0732V105H19.5687V97.6035H20.7718L20.8402 99.0732ZM20.5804 101.021L19.9925 101.001C19.9971 100.495 20.0632 100.028 20.1908 99.5996C20.3184 99.1667 20.5075 98.7907 20.7582 98.4717C21.0088 98.1527 21.321 97.9066 21.6947 97.7334C22.0684 97.5557 22.5013 97.4668 22.9935 97.4668C23.3399 97.4668 23.6589 97.5169 23.9505 97.6172C24.2422 97.7129 24.4951 97.8656 24.7093 98.0752C24.9235 98.2848 25.0899 98.5537 25.2084 98.8818C25.3268 99.21 25.3861 99.6064 25.3861 100.071V105H24.1214V100.133C24.1214 99.7454 24.0554 99.4355 23.9232 99.2031C23.7956 98.9707 23.6133 98.8021 23.3763 98.6973C23.1393 98.5879 22.8614 98.5332 22.5423 98.5332C22.1686 98.5332 21.8565 98.5993 21.6058 98.7314C21.3552 98.8636 21.1546 99.0459 21.0043 99.2783C20.8539 99.5107 20.7445 99.7773 20.6761 100.078C20.6123 100.374 20.5804 100.689 20.5804 101.021ZM25.3724 100.324L24.5248 100.584C24.5293 100.178 24.5954 99.7887 24.723 99.415C24.8552 99.0413 25.0443 98.7087 25.2904 98.417C25.541 98.1253 25.8487 97.8952 26.2132 97.7266C26.5778 97.5534 26.9948 97.4668 27.4642 97.4668C27.8607 97.4668 28.2116 97.5192 28.517 97.624C28.8268 97.7288 29.0866 97.8906 29.2962 98.1094C29.5104 98.3236 29.6722 98.5993 29.7816 98.9365C29.891 99.2738 29.9457 99.6748 29.9457 100.14V105H28.6742V100.126C28.6742 99.7113 28.6081 99.39 28.4759 99.1621C28.3483 98.9297 28.166 98.7679 27.9291 98.6768C27.6966 98.5811 27.4186 98.5332 27.0951 98.5332C26.8171 98.5332 26.571 98.5811 26.3568 98.6768C26.1426 98.7725 25.9626 98.9046 25.8168 99.0732C25.6709 99.2373 25.5593 99.4264 25.4818 99.6406C25.4089 99.8548 25.3724 100.083 25.3724 100.324ZM35.2491 105.137C34.7341 105.137 34.267 105.05 33.8477 104.877C33.433 104.699 33.0752 104.451 32.7745 104.132C32.4782 103.813 32.2504 103.435 32.0909 102.997C31.9314 102.56 31.8516 102.081 31.8516 101.562V101.274C31.8516 100.673 31.9405 100.137 32.1182 99.668C32.2959 99.194 32.5375 98.793 32.8428 98.4648C33.1482 98.1367 33.4945 97.8883 33.8819 97.7197C34.2692 97.5511 34.6703 97.4668 35.085 97.4668C35.6136 97.4668 36.0694 97.5579 36.4522 97.7402C36.8396 97.9225 37.1563 98.1777 37.4024 98.5059C37.6485 98.8294 37.8308 99.2122 37.9493 99.6543C38.0677 100.092 38.127 100.57 38.127 101.09V101.657H32.6036V100.625H36.8623V100.529C36.8441 100.201 36.7758 99.8822 36.6573 99.5723C36.5433 99.2624 36.361 99.0072 36.1104 98.8066C35.8597 98.6061 35.5179 98.5059 35.085 98.5059C34.7979 98.5059 34.5336 98.5674 34.292 98.6904C34.0505 98.8089 33.8431 98.9867 33.67 99.2236C33.4968 99.4606 33.3623 99.75 33.2666 100.092C33.1709 100.434 33.1231 100.828 33.1231 101.274V101.562C33.1231 101.912 33.1709 102.243 33.2666 102.553C33.3669 102.858 33.5105 103.127 33.6973 103.359C33.8887 103.592 34.1189 103.774 34.3877 103.906C34.6612 104.038 34.9711 104.104 35.3174 104.104C35.764 104.104 36.1423 104.013 36.4522 103.831C36.7621 103.649 37.0332 103.405 37.2657 103.1L38.0313 103.708C37.8718 103.95 37.669 104.18 37.4229 104.398C37.1768 104.617 36.8737 104.795 36.5137 104.932C36.1582 105.068 35.7367 105.137 35.2491 105.137ZM47.7357 94.9922V105H46.4711V96.5713L43.9213 97.501V96.3594L47.5375 94.9922H47.7357Z" fill="#6C8989"/>
<path d="M5.1709 260.818H2.32178V259.668H5.1709C5.72266 259.668 6.16943 259.58 6.51123 259.404C6.85303 259.229 7.10205 258.984 7.2583 258.672C7.41943 258.359 7.5 258.003 7.5 257.603C7.5 257.236 7.41943 256.892 7.2583 256.57C7.10205 256.248 6.85303 255.989 6.51123 255.793C6.16943 255.593 5.72266 255.493 5.1709 255.493H2.65137V265H1.23779V254.336H5.1709C5.97656 254.336 6.65771 254.475 7.21436 254.753C7.771 255.032 8.19336 255.417 8.48145 255.911C8.76953 256.399 8.91357 256.958 8.91357 257.588C8.91357 258.271 8.76953 258.855 8.48145 259.338C8.19336 259.822 7.771 260.19 7.21436 260.444C6.65771 260.693 5.97656 260.818 5.1709 260.818ZM12.1706 258.32V265H10.8156V257.075H12.134L12.1706 258.32ZM14.6462 257.031L14.6388 258.291C14.5265 258.267 14.4191 258.252 14.3166 258.247C14.2189 258.237 14.1066 258.232 13.9797 258.232C13.6672 258.232 13.3913 258.281 13.152 258.379C12.9128 258.477 12.7101 258.613 12.5441 258.789C12.3781 258.965 12.2463 259.175 12.1486 259.419C12.0558 259.658 11.9948 259.922 11.9655 260.21L11.5846 260.43C11.5846 259.951 11.631 259.502 11.7238 259.082C11.8215 258.662 11.9704 258.291 12.1706 257.969C12.3708 257.642 12.6247 257.388 12.9323 257.207C13.2448 257.021 13.6159 256.929 14.0456 256.929C14.1432 256.929 14.2555 256.941 14.3825 256.965C14.5095 256.985 14.5973 257.007 14.6462 257.031ZM17.6908 257.075V265H16.3285V257.075H17.6908ZM16.2259 254.973C16.2259 254.753 16.2919 254.568 16.4237 254.417C16.5604 254.265 16.7606 254.189 17.0243 254.189C17.2831 254.189 17.4808 254.265 17.6175 254.417C17.7591 254.568 17.8299 254.753 17.8299 254.973C17.8299 255.183 17.7591 255.364 17.6175 255.515C17.4808 255.662 17.2831 255.735 17.0243 255.735C16.7606 255.735 16.5604 255.662 16.4237 255.515C16.2919 255.364 16.2259 255.183 16.2259 254.973ZM23.3575 264.033C23.6797 264.033 23.9776 263.967 24.251 263.835C24.5245 263.704 24.7491 263.523 24.9248 263.293C25.1006 263.059 25.2007 262.793 25.2251 262.495H26.5142C26.4898 262.964 26.3311 263.401 26.0381 263.806C25.75 264.207 25.3716 264.531 24.9029 264.78C24.4341 265.024 23.919 265.146 23.3575 265.146C22.7618 265.146 22.2417 265.042 21.7974 264.832C21.3579 264.622 20.9917 264.333 20.6988 263.967C20.4107 263.601 20.1934 263.181 20.0469 262.708C19.9053 262.229 19.8345 261.724 19.8345 261.191V260.884C19.8345 260.352 19.9053 259.849 20.0469 259.375C20.1934 258.896 20.4107 258.474 20.6988 258.108C20.9917 257.742 21.3579 257.454 21.7974 257.244C22.2417 257.034 22.7618 256.929 23.3575 256.929C23.9776 256.929 24.5196 257.056 24.9834 257.31C25.4473 257.559 25.8111 257.9 26.0747 258.335C26.3433 258.765 26.4898 259.253 26.5142 259.8H25.2251C25.2007 259.473 25.1079 259.177 24.9468 258.914C24.7906 258.65 24.5757 258.44 24.3023 258.284C24.0337 258.123 23.7188 258.042 23.3575 258.042C22.9424 258.042 22.5933 258.125 22.3101 258.291C22.0318 258.452 21.8096 258.672 21.6436 258.95C21.4825 259.224 21.3653 259.529 21.292 259.866C21.2237 260.198 21.1895 260.537 21.1895 260.884V261.191C21.1895 261.538 21.2237 261.88 21.292 262.217C21.3604 262.554 21.4751 262.859 21.6363 263.132C21.8023 263.406 22.0245 263.625 22.3028 263.792C22.586 263.953 22.9375 264.033 23.3575 264.033ZM29.8298 257.075V265H28.4675V257.075H29.8298ZM28.365 254.973C28.365 254.753 28.4309 254.568 28.5627 254.417C28.6994 254.265 28.8996 254.189 29.1633 254.189C29.4221 254.189 29.6198 254.265 29.7566 254.417C29.8982 254.568 29.969 254.753 29.969 254.973C29.969 255.183 29.8982 255.364 29.7566 255.515C29.6198 255.662 29.4221 255.735 29.1633 255.735C28.8996 255.735 28.6994 255.662 28.5627 255.515C28.4309 255.364 28.365 255.183 28.365 254.973ZM33.6801 258.767V265H32.3251V257.075H33.6068L33.6801 258.767ZM33.3578 260.737L32.7938 260.715C32.7987 260.173 32.8793 259.673 33.0355 259.214C33.1918 258.75 33.4115 258.347 33.6947 258.005C33.9779 257.664 34.3148 257.4 34.7055 257.214C35.101 257.024 35.538 256.929 36.0165 256.929C36.4071 256.929 36.7587 256.982 37.0712 257.09C37.3837 257.192 37.6498 257.358 37.8695 257.588C38.0941 257.817 38.265 258.115 38.3822 258.481C38.4994 258.843 38.558 259.285 38.558 259.807V265H37.1957V259.792C37.1957 259.377 37.1347 259.045 37.0126 258.796C36.8905 258.542 36.7123 258.359 36.4779 258.247C36.2436 258.13 35.9555 258.071 35.6137 258.071C35.2768 258.071 34.9691 258.142 34.6908 258.284C34.4174 258.425 34.1806 258.621 33.9804 258.87C33.7851 259.119 33.6313 259.404 33.5189 259.727C33.4115 260.044 33.3578 260.381 33.3578 260.737ZM46.0704 257.075H47.3009V264.832C47.3009 265.53 47.1593 266.125 46.8761 266.619C46.5928 267.112 46.1973 267.485 45.6895 267.739C45.1866 267.998 44.6055 268.127 43.9464 268.127C43.6729 268.127 43.3507 268.083 42.9796 267.996C42.6134 267.913 42.252 267.769 41.8956 267.563C41.544 267.363 41.2486 267.092 41.0094 266.75L41.7198 265.945C42.0518 266.345 42.3985 266.624 42.7598 266.78C43.1261 266.936 43.4874 267.014 43.8438 267.014C44.2735 267.014 44.6446 266.934 44.9571 266.772C45.2696 266.611 45.5113 266.372 45.6822 266.055C45.858 265.742 45.9459 265.356 45.9459 264.897V258.818L46.0704 257.075ZM40.6138 261.125V260.972C40.6138 260.366 40.6846 259.817 40.8262 259.324C40.9727 258.826 41.1803 258.398 41.4488 258.042C41.7222 257.686 42.0518 257.412 42.4376 257.222C42.8233 257.026 43.2579 256.929 43.7413 256.929C44.2393 256.929 44.6739 257.017 45.045 257.192C45.421 257.363 45.7384 257.615 45.9971 257.947C46.2608 258.274 46.4683 258.669 46.6197 259.133C46.7711 259.597 46.8761 260.122 46.9346 260.708V261.382C46.8809 261.963 46.776 262.485 46.6197 262.949C46.4683 263.413 46.2608 263.809 45.9971 264.136C45.7384 264.463 45.421 264.714 45.045 264.89C44.669 265.061 44.2296 265.146 43.7266 265.146C43.253 265.146 42.8233 265.046 42.4376 264.846C42.0567 264.646 41.7296 264.365 41.4561 264.004C41.1827 263.643 40.9727 263.218 40.8262 262.729C40.6846 262.236 40.6138 261.702 40.6138 261.125ZM41.9688 260.972V261.125C41.9688 261.521 42.0079 261.892 42.086 262.239C42.169 262.585 42.2935 262.891 42.4595 263.154C42.6304 263.418 42.8477 263.625 43.1114 263.777C43.3751 263.923 43.69 263.997 44.0562 263.997C44.5054 263.997 44.8765 263.901 45.1695 263.711C45.4625 263.521 45.6944 263.269 45.8653 262.957C46.0411 262.644 46.1778 262.305 46.2755 261.938V260.173C46.2218 259.905 46.1387 259.646 46.0264 259.397C45.919 259.143 45.7774 258.918 45.6016 258.723C45.4307 258.523 45.2183 258.364 44.9644 258.247C44.7105 258.13 44.4127 258.071 44.0709 258.071C43.6998 258.071 43.38 258.149 43.1114 258.306C42.8477 258.457 42.6304 258.667 42.4595 258.936C42.2935 259.199 42.169 259.507 42.086 259.858C42.0079 260.205 41.9688 260.576 41.9688 260.972ZM60.5605 263.887V265H53.5805V264.026L57.0742 260.137C57.5038 259.658 57.8359 259.253 58.0703 258.921C58.3095 258.584 58.4755 258.284 58.5683 258.02C58.666 257.751 58.7148 257.478 58.7148 257.2C58.7148 256.848 58.6415 256.531 58.4951 256.248C58.3535 255.959 58.1435 255.73 57.8652 255.559C57.5869 255.388 57.2499 255.303 56.8544 255.303C56.3808 255.303 55.9853 255.396 55.6679 255.581C55.3554 255.762 55.121 256.016 54.9648 256.343C54.8085 256.67 54.7304 257.046 54.7304 257.471H53.3754C53.3754 256.87 53.5073 256.321 53.7709 255.823C54.0346 255.325 54.4252 254.929 54.9428 254.636C55.4604 254.338 56.0976 254.189 56.8544 254.189C57.5283 254.189 58.1044 254.309 58.583 254.548C59.0615 254.783 59.4277 255.115 59.6816 255.544C59.9404 255.969 60.0698 256.467 60.0698 257.039C60.0698 257.351 60.0161 257.668 59.9086 257.991C59.8061 258.308 59.6621 258.625 59.4765 258.943C59.2958 259.26 59.0834 259.573 58.8393 259.88C58.6 260.188 58.3437 260.491 58.0703 260.789L55.2138 263.887H60.5605Z" fill="#6C8989"/>
</svg>
