<svg width="172" height="441" viewBox="0 0 172 441" fill="none" xmlns="http://www.w3.org/2000/svg">
<path d="M5.51562 12.5391H2.47656V11.3125H5.51562C6.10417 11.3125 6.58073 11.2188 6.94531 11.0312C7.3099 10.8438 7.57552 10.5833 7.74219 10.25C7.91406 9.91667 8 9.53646 8 9.10938C8 8.71875 7.91406 8.35156 7.74219 8.00781C7.57552 7.66406 7.3099 7.38802 6.94531 7.17969C6.58073 6.96615 6.10417 6.85938 5.51562 6.85938H2.82812V17H1.32031V5.625H5.51562C6.375 5.625 7.10156 5.77344 7.69531 6.07031C8.28906 6.36719 8.73958 6.77865 9.04688 7.30469C9.35417 7.82552 9.50781 8.42188 9.50781 9.09375C9.50781 9.82292 9.35417 10.4453 9.04688 10.9609C8.73958 11.4766 8.28906 11.8698 7.69531 12.1406C7.10156 12.4062 6.375 12.5391 5.51562 12.5391ZM16.0859 15.5547V11.2031C16.0859 10.8698 16.0182 10.5807 15.8828 10.3359C15.7526 10.0859 15.5547 9.89323 15.2891 9.75781C15.0234 9.6224 14.6953 9.55469 14.3047 9.55469C13.9401 9.55469 13.6198 9.61719 13.3438 9.74219C13.0729 9.86719 12.8594 10.0312 12.7031 10.2344C12.5521 10.4375 12.4766 10.6562 12.4766 10.8906H11.0312C11.0312 10.5885 11.1094 10.2891 11.2656 9.99219C11.4219 9.69531 11.6458 9.42708 11.9375 9.1875C12.2344 8.94271 12.5885 8.75 13 8.60938C13.4167 8.46354 13.8802 8.39062 14.3906 8.39062C15.0052 8.39062 15.5469 8.49479 16.0156 8.70312C16.4896 8.91146 16.8594 9.22656 17.125 9.64844C17.3958 10.0651 17.5312 10.5885 17.5312 11.2188V15.1562C17.5312 15.4375 17.5547 15.737 17.6016 16.0547C17.6536 16.3724 17.7292 16.6458 17.8281 16.875V17H16.3203C16.2474 16.8333 16.1901 16.612 16.1484 16.3359C16.1068 16.0547 16.0859 15.7943 16.0859 15.5547ZM16.3359 11.875L16.3516 12.8906H14.8906C14.4792 12.8906 14.112 12.9245 13.7891 12.9922C13.4661 13.0547 13.1953 13.151 12.9766 13.2812C12.7578 13.4115 12.5911 13.5755 12.4766 13.7734C12.362 13.9661 12.3047 14.1927 12.3047 14.4531C12.3047 14.7188 12.3646 14.9609 12.4844 15.1797C12.6042 15.3984 12.7839 15.5729 13.0234 15.7031C13.2682 15.8281 13.5677 15.8906 13.9219 15.8906C14.3646 15.8906 14.7552 15.7969 15.0938 15.6094C15.4323 15.4219 15.7005 15.1927 15.8984 14.9219C16.1016 14.651 16.2109 14.388 16.2266 14.1328L16.8438 14.8281C16.8073 15.0469 16.7083 15.2891 16.5469 15.5547C16.3854 15.8203 16.1693 16.0755 15.8984 16.3203C15.6328 16.5599 15.3151 16.7604 14.9453 16.9219C14.5807 17.0781 14.1693 17.1562 13.7109 17.1562C13.138 17.1562 12.6354 17.0443 12.2031 16.8203C11.776 16.5964 11.4427 16.2969 11.2031 15.9219C10.9688 15.5417 10.8516 15.1172 10.8516 14.6484C10.8516 14.1953 10.9401 13.7969 11.1172 13.4531C11.2943 13.1042 11.5495 12.8151 11.8828 12.5859C12.2161 12.3516 12.6172 12.1745 13.0859 12.0547C13.5547 11.9349 14.0781 11.875 14.6562 11.875H16.3359ZM25.2812 8.54688H26.5938V16.8203C26.5938 17.5651 26.4427 18.2005 26.1406 18.7266C25.8385 19.2526 25.4167 19.651 24.875 19.9219C24.3385 20.1979 23.7188 20.3359 23.0156 20.3359C22.724 20.3359 22.3802 20.2891 21.9844 20.1953C21.5938 20.1068 21.2083 19.9531 20.8281 19.7344C20.4531 19.5208 20.138 19.2318 19.8828 18.8672L20.6406 18.0078C20.9948 18.4349 21.3646 18.7318 21.75 18.8984C22.1406 19.0651 22.526 19.1484 22.9062 19.1484C23.3646 19.1484 23.7604 19.0625 24.0938 18.8906C24.4271 18.7188 24.6849 18.4635 24.8672 18.125C25.0547 17.7917 25.1484 17.3802 25.1484 16.8906V10.4062L25.2812 8.54688ZM19.4609 12.8672V12.7031C19.4609 12.0573 19.5365 11.4714 19.6875 10.9453C19.8438 10.4141 20.0651 9.95833 20.3516 9.57812C20.6432 9.19792 20.9948 8.90625 21.4062 8.70312C21.8177 8.49479 22.2812 8.39062 22.7969 8.39062C23.3281 8.39062 23.7917 8.48438 24.1875 8.67188C24.5885 8.85417 24.9271 9.1224 25.2031 9.47656C25.4844 9.82552 25.7057 10.2474 25.8672 10.7422C26.0286 11.237 26.1406 11.7969 26.2031 12.4219V13.1406C26.1458 13.7604 26.0339 14.3177 25.8672 14.8125C25.7057 15.3073 25.4844 15.7292 25.2031 16.0781C24.9271 16.4271 24.5885 16.6953 24.1875 16.8828C23.7865 17.0651 23.3177 17.1562 22.7812 17.1562C22.276 17.1562 21.8177 17.0495 21.4062 16.8359C21 16.6224 20.651 16.3229 20.3594 15.9375C20.0677 15.5521 19.8438 15.099 19.6875 14.5781C19.5365 14.0521 19.4609 13.4818 19.4609 12.8672ZM20.9062 12.7031V12.8672C20.9062 13.2891 20.9479 13.6849 21.0312 14.0547C21.1198 14.4245 21.2526 14.75 21.4297 15.0312C21.612 15.3125 21.8438 15.5339 22.125 15.6953C22.4062 15.8516 22.7422 15.9297 23.1328 15.9297C23.612 15.9297 24.0078 15.8281 24.3203 15.625C24.6328 15.4219 24.8802 15.1536 25.0625 14.8203C25.25 14.487 25.3958 14.125 25.5 13.7344V11.8516C25.4427 11.5651 25.3542 11.2891 25.2344 11.0234C25.1198 10.7526 24.9688 10.513 24.7812 10.3047C24.599 10.0911 24.3724 9.92188 24.1016 9.79688C23.8307 9.67188 23.513 9.60938 23.1484 9.60938C22.7526 9.60938 22.4115 9.69271 22.125 9.85938C21.8438 10.0208 21.612 10.2448 21.4297 10.5312C21.2526 10.8125 21.1198 11.1406 21.0312 11.5156C20.9479 11.8854 20.9062 12.2812 20.9062 12.7031ZM32.2969 17.1562C31.7083 17.1562 31.1745 17.0573 30.6953 16.8594C30.2214 16.6562 29.8125 16.3724 29.4688 16.0078C29.1302 15.6432 28.8698 15.2109 28.6875 14.7109C28.5052 14.2109 28.4141 13.6641 28.4141 13.0703V12.7422C28.4141 12.0547 28.5156 11.4427 28.7188 10.9062C28.9219 10.3646 29.1979 9.90625 29.5469 9.53125C29.8958 9.15625 30.2917 8.8724 30.7344 8.67969C31.1771 8.48698 31.6354 8.39062 32.1094 8.39062C32.7135 8.39062 33.2344 8.49479 33.6719 8.70312C34.1146 8.91146 34.4766 9.20312 34.7578 9.57812C35.0391 9.94792 35.2474 10.3854 35.3828 10.8906C35.5182 11.3906 35.5859 11.9375 35.5859 12.5312V13.1797H29.2734V12H34.1406V11.8906C34.1198 11.5156 34.0417 11.151 33.9062 10.7969C33.776 10.4427 33.5677 10.151 33.2812 9.92188C32.9948 9.69271 32.6042 9.57812 32.1094 9.57812C31.7812 9.57812 31.4792 9.64844 31.2031 9.78906C30.9271 9.92448 30.6901 10.1276 30.4922 10.3984C30.2943 10.6693 30.1406 11 30.0312 11.3906C29.9219 11.7812 29.8672 12.2318 29.8672 12.7422V13.0703C29.8672 13.4714 29.9219 13.849 30.0312 14.2031C30.1458 14.5521 30.3099 14.8594 30.5234 15.125C30.7422 15.3906 31.0052 15.599 31.3125 15.75C31.625 15.901 31.9792 15.9766 32.375 15.9766C32.8854 15.9766 33.3177 15.8724 33.6719 15.6641C34.026 15.4557 34.3359 15.1771 34.6016 14.8281L35.4766 15.5234C35.2943 15.7995 35.0625 16.0625 34.7812 16.3125C34.5 16.5625 34.1536 16.7656 33.7422 16.9219C33.3359 17.0781 32.8542 17.1562 32.2969 17.1562ZM42.1953 14.7578C42.1953 14.5495 42.1484 14.3568 42.0547 14.1797C41.9661 13.9974 41.7812 13.8333 41.5 13.6875C41.224 13.5365 40.8073 13.4062 40.25 13.2969C39.7812 13.1979 39.3568 13.0807 38.9766 12.9453C38.6016 12.8099 38.2812 12.6458 38.0156 12.4531C37.7552 12.2604 37.5547 12.0339 37.4141 11.7734C37.2734 11.513 37.2031 11.2083 37.2031 10.8594C37.2031 10.526 37.276 10.2109 37.4219 9.91406C37.5729 9.61719 37.7839 9.35417 38.0547 9.125C38.3307 8.89583 38.6615 8.71615 39.0469 8.58594C39.4323 8.45573 39.862 8.39062 40.3359 8.39062C41.013 8.39062 41.5911 8.51042 42.0703 8.75C42.5495 8.98958 42.9167 9.3099 43.1719 9.71094C43.4271 10.1068 43.5547 10.5469 43.5547 11.0312H42.1094C42.1094 10.7969 42.0391 10.5703 41.8984 10.3516C41.763 10.1276 41.5625 9.94271 41.2969 9.79688C41.0365 9.65104 40.7161 9.57812 40.3359 9.57812C39.9349 9.57812 39.6094 9.64062 39.3594 9.76562C39.1146 9.88542 38.9349 10.0391 38.8203 10.2266C38.7109 10.4141 38.6562 10.612 38.6562 10.8203C38.6562 10.9766 38.6823 11.1172 38.7344 11.2422C38.7917 11.362 38.8906 11.474 39.0312 11.5781C39.1719 11.6771 39.3698 11.7708 39.625 11.8594C39.8802 11.9479 40.2057 12.0365 40.6016 12.125C41.2943 12.2812 41.8646 12.4688 42.3125 12.6875C42.7604 12.9062 43.0938 13.1745 43.3125 13.4922C43.5312 13.8099 43.6406 14.1953 43.6406 14.6484C43.6406 15.0182 43.5625 15.3568 43.4062 15.6641C43.2552 15.9714 43.0339 16.237 42.7422 16.4609C42.4557 16.6797 42.112 16.8516 41.7109 16.9766C41.3151 17.0964 40.8698 17.1562 40.375 17.1562C39.6302 17.1562 39 17.0234 38.4844 16.7578C37.9688 16.4922 37.5781 16.1484 37.3125 15.7266C37.0469 15.3047 36.9141 14.8594 36.9141 14.3906H38.3672C38.388 14.7865 38.5026 15.1016 38.7109 15.3359C38.9193 15.5651 39.1745 15.7292 39.4766 15.8281C39.7786 15.9219 40.0781 15.9688 40.375 15.9688C40.7708 15.9688 41.1016 15.9167 41.3672 15.8125C41.638 15.7083 41.8438 15.5651 41.9844 15.3828C42.125 15.2005 42.1953 14.9922 42.1953 14.7578Z" fill="#F4F5F6"/>
<path d="M5.18555 95.2808L1.65527 105H0.212402L4.27734 94.3359H5.20752L5.18555 95.2808ZM8.14453 105L4.60693 95.2808L4.58496 94.3359H5.51514L9.59473 105H8.14453ZM7.96143 101.052V102.209H1.97021V101.052H7.96143ZM11.1305 93.75H12.4929V103.462L12.3757 105H11.1305V93.75ZM17.8469 100.972V101.125C17.8469 101.702 17.7785 102.236 17.6418 102.729C17.5051 103.218 17.3049 103.643 17.0412 104.004C16.7775 104.365 16.4553 104.646 16.0744 104.846C15.6935 105.046 15.2565 105.146 14.7634 105.146C14.2604 105.146 13.8185 105.061 13.4377 104.89C13.0617 104.714 12.7443 104.463 12.4855 104.136C12.2267 103.809 12.0192 103.413 11.863 102.949C11.7116 102.485 11.6066 101.963 11.548 101.382V100.708C11.6066 100.122 11.7116 99.5972 11.863 99.1333C12.0192 98.6694 12.2267 98.2739 12.4855 97.9468C12.7443 97.6147 13.0617 97.3633 13.4377 97.1924C13.8137 97.0166 14.2507 96.9287 14.7487 96.9287C15.2468 96.9287 15.6887 97.0264 16.0744 97.2217C16.4601 97.4121 16.7824 97.6855 17.0412 98.042C17.3049 98.3984 17.5051 98.8257 17.6418 99.3237C17.7785 99.8169 17.8469 100.366 17.8469 100.972ZM16.4846 101.125V100.972C16.4846 100.576 16.4479 100.205 16.3747 99.8584C16.3014 99.5068 16.1843 99.1992 16.0231 98.9355C15.862 98.667 15.6496 98.457 15.3859 98.3057C15.1222 98.1494 14.7975 98.0713 14.4118 98.0713C14.07 98.0713 13.7721 98.1299 13.5182 98.2471C13.2692 98.3643 13.0568 98.5229 12.881 98.7231C12.7053 98.9185 12.5612 99.1431 12.4489 99.397C12.3415 99.646 12.2609 99.9048 12.2072 100.173V101.938C12.2853 102.28 12.4123 102.61 12.5881 102.927C12.7687 103.24 13.008 103.496 13.3058 103.696C13.6086 103.896 13.9821 103.997 14.4264 103.997C14.7927 103.997 15.1052 103.923 15.3639 103.777C15.6276 103.625 15.84 103.418 16.0012 103.154C16.1672 102.891 16.2892 102.585 16.3674 102.239C16.4455 101.892 16.4846 101.521 16.4846 101.125ZM19.5218 101.125V100.957C19.5218 100.386 19.6048 99.856 19.7709 99.3677C19.9369 98.8745 20.1761 98.4473 20.4886 98.0859C20.8011 97.7197 21.1796 97.4365 21.6239 97.2363C22.0682 97.0312 22.5663 96.9287 23.118 96.9287C23.6747 96.9287 24.1752 97.0312 24.6195 97.2363C25.0687 97.4365 25.4496 97.7197 25.7621 98.0859C26.0795 98.4473 26.3212 98.8745 26.4872 99.3677C26.6532 99.856 26.7362 100.386 26.7362 100.957V101.125C26.7362 101.697 26.6532 102.227 26.4872 102.715C26.3212 103.203 26.0795 103.63 25.7621 103.997C25.4496 104.358 25.0712 104.641 24.6268 104.846C24.1874 105.046 23.6893 105.146 23.1327 105.146C22.576 105.146 22.0755 105.046 21.6312 104.846C21.1869 104.641 20.806 104.358 20.4886 103.997C20.1761 103.63 19.9369 103.203 19.7709 102.715C19.6048 102.227 19.5218 101.697 19.5218 101.125ZM20.8768 100.957V101.125C20.8768 101.521 20.9232 101.895 21.016 102.246C21.1087 102.593 21.2479 102.9 21.4335 103.169C21.6239 103.438 21.8607 103.65 22.1439 103.806C22.4271 103.958 22.7567 104.033 23.1327 104.033C23.5038 104.033 23.8285 103.958 24.1068 103.806C24.39 103.65 24.6244 103.438 24.8099 103.169C24.9955 102.9 25.1346 102.593 25.2274 102.246C25.3251 101.895 25.3739 101.521 25.3739 101.125V100.957C25.3739 100.566 25.3251 100.198 25.2274 99.8511C25.1346 99.4995 24.993 99.1895 24.8026 98.9209C24.6171 98.6475 24.3827 98.4326 24.0995 98.2764C23.8212 98.1201 23.494 98.042 23.118 98.042C22.7469 98.042 22.4198 98.1201 22.1366 98.2764C21.8583 98.4326 21.6239 98.6475 21.4335 98.9209C21.2479 99.1895 21.1087 99.4995 21.016 99.8511C20.9232 100.198 20.8768 100.566 20.8768 100.957ZM33.604 103.169V97.0752H34.9663V105H33.67L33.604 103.169ZM33.8604 101.499L34.4244 101.484C34.4244 102.012 34.3682 102.5 34.2559 102.949C34.1485 103.394 33.9727 103.779 33.7286 104.106C33.4844 104.434 33.1646 104.69 32.7691 104.875C32.3736 105.056 31.8926 105.146 31.3262 105.146C30.9405 105.146 30.5865 105.09 30.2642 104.978C29.9468 104.866 29.6734 104.692 29.4439 104.458C29.2144 104.224 29.0362 103.918 28.9092 103.542C28.7871 103.167 28.7261 102.715 28.7261 102.188V97.0752H30.0811V102.202C30.0811 102.559 30.1202 102.854 30.1983 103.088C30.2813 103.318 30.3912 103.501 30.5279 103.638C30.6695 103.77 30.8257 103.862 30.9966 103.916C31.1724 103.97 31.3531 103.997 31.5386 103.997C32.1148 103.997 32.5713 103.887 32.9082 103.667C33.2452 103.442 33.4869 103.142 33.6333 102.766C33.7847 102.385 33.8604 101.963 33.8604 101.499ZM40.6696 97.0752V98.1152H36.385V97.0752H40.6696ZM37.8352 95.1489H39.1902V103.037C39.1902 103.306 39.2317 103.508 39.3147 103.645C39.3977 103.782 39.5051 103.872 39.6369 103.916C39.7688 103.96 39.9104 103.982 40.0617 103.982C40.174 103.982 40.2912 103.972 40.4133 103.953C40.5403 103.928 40.6355 103.909 40.6989 103.894L40.7063 105C40.5988 105.034 40.4572 105.066 40.2815 105.095C40.1106 105.129 39.903 105.146 39.6589 105.146C39.3269 105.146 39.0217 105.081 38.7434 104.949C38.4651 104.817 38.2429 104.597 38.0769 104.29C37.9157 103.977 37.8352 103.557 37.8352 103.03V95.1489ZM53.4605 103.887V105H46.4805V104.026L49.9742 100.137C50.4039 99.6582 50.7359 99.2529 50.9703 98.9209C51.2095 98.584 51.3756 98.2837 51.4683 98.02C51.566 97.7515 51.6148 97.478 51.6148 97.1997C51.6148 96.8481 51.5416 96.5308 51.3951 96.2476C51.2535 95.9595 51.0435 95.73 50.7652 95.5591C50.4869 95.3882 50.15 95.3027 49.7545 95.3027C49.2808 95.3027 48.8853 95.3955 48.5679 95.5811C48.2554 95.7617 48.0211 96.0156 47.8648 96.3428C47.7086 96.6699 47.6304 97.0459 47.6304 97.4707H46.2755C46.2755 96.8701 46.4073 96.3208 46.671 95.8228C46.9346 95.3247 47.3253 94.9292 47.8428 94.6362C48.3604 94.3384 48.9976 94.1895 49.7545 94.1895C50.4283 94.1895 51.0045 94.3091 51.483 94.5483C51.9615 94.7827 52.3277 95.1147 52.5816 95.5444C52.8404 95.9692 52.9698 96.4673 52.9698 97.0386C52.9698 97.3511 52.9161 97.6685 52.8087 97.9907C52.7061 98.3081 52.5621 98.6255 52.3765 98.9429C52.1959 99.2603 51.9835 99.5728 51.7393 99.8804C51.5001 100.188 51.2437 100.491 50.9703 100.789L48.1138 103.887H53.4605Z" fill="#6C8989"/>
<path d="M4.70312 180.345H2.18066L2.16699 179.285H4.45703C4.83529 179.285 5.16569 179.221 5.44824 179.094C5.73079 178.966 5.94954 178.784 6.10449 178.547C6.264 178.305 6.34375 178.018 6.34375 177.686C6.34375 177.321 6.27311 177.025 6.13184 176.797C5.99512 176.564 5.7832 176.396 5.49609 176.291C5.21354 176.182 4.85352 176.127 4.41602 176.127H2.47461V185H1.15527V175.047H4.41602C4.92643 175.047 5.38216 175.099 5.7832 175.204C6.18424 175.304 6.52376 175.464 6.80176 175.683C7.08431 175.897 7.2985 176.17 7.44434 176.503C7.59017 176.836 7.66309 177.234 7.66309 177.699C7.66309 178.109 7.55827 178.481 7.34863 178.813C7.139 179.142 6.84733 179.41 6.47363 179.62C6.10449 179.83 5.67155 179.964 5.1748 180.023L4.70312 180.345ZM4.6416 185H1.66113L2.40625 183.927H4.6416C5.06087 183.927 5.41634 183.854 5.70801 183.708C6.00423 183.562 6.22982 183.357 6.38477 183.093C6.53971 182.824 6.61719 182.507 6.61719 182.143C6.61719 181.773 6.55111 181.454 6.41895 181.186C6.28678 180.917 6.07943 180.709 5.79688 180.563C5.51432 180.418 5.14974 180.345 4.70312 180.345H2.82324L2.83691 179.285H5.40723L5.6875 179.668C6.16602 179.709 6.57161 179.846 6.9043 180.078C7.23698 180.306 7.48991 180.598 7.66309 180.953C7.84082 181.309 7.92969 181.701 7.92969 182.129C7.92969 182.749 7.79297 183.273 7.51953 183.701C7.25065 184.125 6.87012 184.449 6.37793 184.672C5.88574 184.891 5.30697 185 4.6416 185ZM11.3805 174.5V185H10.1091V174.5H11.3805ZM13.3959 181.384V181.227C13.3959 180.693 13.4733 180.199 13.6283 179.743C13.7832 179.283 14.0065 178.884 14.2982 178.547C14.5899 178.205 14.9431 177.941 15.3578 177.754C15.7725 177.562 16.2373 177.467 16.7523 177.467C17.2718 177.467 17.739 177.562 18.1537 177.754C18.5729 177.941 18.9284 178.205 19.2201 178.547C19.5163 178.884 19.7419 179.283 19.8968 179.743C20.0518 180.199 20.1293 180.693 20.1293 181.227V181.384C20.1293 181.917 20.0518 182.411 19.8968 182.867C19.7419 183.323 19.5163 183.722 19.2201 184.063C18.9284 184.401 18.5752 184.665 18.1605 184.856C17.7504 185.043 17.2855 185.137 16.766 185.137C16.2464 185.137 15.7793 185.043 15.3646 184.856C14.9499 184.665 14.5944 184.401 14.2982 184.063C14.0065 183.722 13.7832 183.323 13.6283 182.867C13.4733 182.411 13.3959 181.917 13.3959 181.384ZM14.6605 181.227V181.384C14.6605 181.753 14.7038 182.102 14.7904 182.43C14.877 182.753 15.0069 183.04 15.18 183.291C15.3578 183.542 15.5788 183.74 15.8431 183.886C16.1074 184.027 16.4151 184.098 16.766 184.098C17.1123 184.098 17.4154 184.027 17.6752 183.886C17.9395 183.74 18.1582 183.542 18.3314 183.291C18.5046 183.04 18.6345 182.753 18.7211 182.43C18.8122 182.102 18.8578 181.753 18.8578 181.384V181.227C18.8578 180.862 18.8122 180.518 18.7211 180.194C18.6345 179.866 18.5023 179.577 18.3246 179.326C18.1514 179.071 17.9326 178.87 17.6683 178.725C17.4086 178.579 17.1032 178.506 16.7523 178.506C16.406 178.506 16.1006 178.579 15.8363 178.725C15.5765 178.87 15.3578 179.071 15.18 179.326C15.0069 179.577 14.877 179.866 14.7904 180.194C14.7038 180.518 14.6605 180.862 14.6605 181.227ZM26.8272 177.604H27.9756V184.843C27.9756 185.494 27.8435 186.05 27.5791 186.511C27.3148 186.971 26.9457 187.32 26.4717 187.557C26.0023 187.798 25.46 187.919 24.8448 187.919C24.5896 187.919 24.2888 187.878 23.9424 187.796C23.6006 187.718 23.2634 187.584 22.9307 187.393C22.6026 187.206 22.3269 186.953 22.1036 186.634L22.7666 185.882C23.0765 186.256 23.4001 186.515 23.7373 186.661C24.0791 186.807 24.4164 186.88 24.7491 186.88C25.1501 186.88 25.4965 186.805 25.7881 186.654C26.0798 186.504 26.3054 186.281 26.4649 185.984C26.6289 185.693 26.711 185.333 26.711 184.904V179.23L26.8272 177.604ZM21.7344 181.384V181.24C21.7344 180.675 21.8005 180.162 21.9327 179.702C22.0694 179.237 22.2631 178.839 22.5137 178.506C22.7689 178.173 23.0765 177.918 23.4366 177.74C23.7966 177.558 24.2022 177.467 24.6534 177.467C25.1182 177.467 25.5238 177.549 25.8702 177.713C26.2211 177.872 26.5173 178.107 26.7588 178.417C27.0049 178.722 27.1986 179.091 27.3399 179.524C27.4812 179.957 27.5791 180.447 27.6338 180.994V181.623C27.5837 182.165 27.4857 182.653 27.3399 183.086C27.1986 183.519 27.0049 183.888 26.7588 184.193C26.5173 184.499 26.2211 184.733 25.8702 184.897C25.5192 185.057 25.1091 185.137 24.6397 185.137C24.1976 185.137 23.7966 185.043 23.4366 184.856C23.0811 184.67 22.7758 184.408 22.5205 184.07C22.2653 183.733 22.0694 183.337 21.9327 182.881C21.8005 182.421 21.7344 181.922 21.7344 181.384ZM22.9991 181.24V181.384C22.9991 181.753 23.0355 182.099 23.1084 182.423C23.1859 182.746 23.3021 183.031 23.4571 183.277C23.6166 183.523 23.8194 183.717 24.0655 183.858C24.3116 183.995 24.6055 184.063 24.9473 184.063C25.3666 184.063 25.7129 183.975 25.9864 183.797C26.2598 183.619 26.4763 183.384 26.6358 183.093C26.7998 182.801 26.9274 182.484 27.0186 182.143V180.495C26.9685 180.244 26.891 180.003 26.7862 179.771C26.6859 179.534 26.5537 179.324 26.3897 179.142C26.2302 178.955 26.0319 178.807 25.795 178.697C25.558 178.588 25.28 178.533 24.961 178.533C24.6146 178.533 24.3161 178.606 24.0655 178.752C23.8194 178.893 23.6166 179.089 23.4571 179.34C23.3021 179.586 23.1859 179.873 23.1084 180.201C23.0355 180.525 22.9991 180.871 22.9991 181.24ZM38.0287 174.992V185H36.7641V176.571L34.2143 177.501V176.359L37.8305 174.992H38.0287Z" fill="#6C8989"/>
<path d="M4.70312 260.345H2.18066L2.16699 259.285H4.45703C4.83529 259.285 5.16569 259.221 5.44824 259.094C5.73079 258.966 5.94954 258.784 6.10449 258.547C6.264 258.305 6.34375 258.018 6.34375 257.686C6.34375 257.321 6.27311 257.025 6.13184 256.797C5.99512 256.564 5.7832 256.396 5.49609 256.291C5.21354 256.182 4.85352 256.127 4.41602 256.127H2.47461V265H1.15527V255.047H4.41602C4.92643 255.047 5.38216 255.099 5.7832 255.204C6.18424 255.304 6.52376 255.464 6.80176 255.683C7.08431 255.897 7.2985 256.17 7.44434 256.503C7.59017 256.836 7.66309 257.234 7.66309 257.699C7.66309 258.109 7.55827 258.481 7.34863 258.813C7.139 259.142 6.84733 259.41 6.47363 259.62C6.10449 259.83 5.67155 259.964 5.1748 260.023L4.70312 260.345ZM4.6416 265H1.66113L2.40625 263.927H4.6416C5.06087 263.927 5.41634 263.854 5.70801 263.708C6.00423 263.562 6.22982 263.357 6.38477 263.093C6.53971 262.824 6.61719 262.507 6.61719 262.143C6.61719 261.773 6.55111 261.454 6.41895 261.186C6.28678 260.917 6.07943 260.709 5.79688 260.563C5.51432 260.418 5.14974 260.345 4.70312 260.345H2.82324L2.83691 259.285H5.40723L5.6875 259.668C6.16602 259.709 6.57161 259.846 6.9043 260.078C7.23698 260.306 7.48991 260.598 7.66309 260.953C7.84082 261.309 7.92969 261.701 7.92969 262.129C7.92969 262.749 7.79297 263.273 7.51953 263.701C7.25065 264.125 6.87012 264.449 6.37793 264.672C5.88574 264.891 5.30697 265 4.6416 265ZM11.3805 254.5V265H10.1091V254.5H11.3805ZM13.3959 261.384V261.227C13.3959 260.693 13.4733 260.199 13.6283 259.743C13.7832 259.283 14.0065 258.884 14.2982 258.547C14.5899 258.205 14.9431 257.941 15.3578 257.754C15.7725 257.562 16.2373 257.467 16.7523 257.467C17.2718 257.467 17.739 257.562 18.1537 257.754C18.5729 257.941 18.9284 258.205 19.2201 258.547C19.5163 258.884 19.7419 259.283 19.8968 259.743C20.0518 260.199 20.1293 260.693 20.1293 261.227V261.384C20.1293 261.917 20.0518 262.411 19.8968 262.867C19.7419 263.323 19.5163 263.722 19.2201 264.063C18.9284 264.401 18.5752 264.665 18.1605 264.856C17.7504 265.043 17.2855 265.137 16.766 265.137C16.2464 265.137 15.7793 265.043 15.3646 264.856C14.9499 264.665 14.5944 264.401 14.2982 264.063C14.0065 263.722 13.7832 263.323 13.6283 262.867C13.4733 262.411 13.3959 261.917 13.3959 261.384ZM14.6605 261.227V261.384C14.6605 261.753 14.7038 262.102 14.7904 262.43C14.877 262.753 15.0069 263.04 15.18 263.291C15.3578 263.542 15.5788 263.74 15.8431 263.886C16.1074 264.027 16.4151 264.098 16.766 264.098C17.1123 264.098 17.4154 264.027 17.6752 263.886C17.9395 263.74 18.1582 263.542 18.3314 263.291C18.5046 263.04 18.6345 262.753 18.7211 262.43C18.8122 262.102 18.8578 261.753 18.8578 261.384V261.227C18.8578 260.862 18.8122 260.518 18.7211 260.194C18.6345 259.866 18.5023 259.577 18.3246 259.326C18.1514 259.071 17.9326 258.87 17.6683 258.725C17.4086 258.579 17.1032 258.506 16.7523 258.506C16.406 258.506 16.1006 258.579 15.8363 258.725C15.5765 258.87 15.3578 259.071 15.18 259.326C15.0069 259.577 14.877 259.866 14.7904 260.194C14.7038 260.518 14.6605 260.862 14.6605 261.227ZM26.8272 257.604H27.9756V264.843C27.9756 265.494 27.8435 266.05 27.5791 266.511C27.3148 266.971 26.9457 267.32 26.4717 267.557C26.0023 267.798 25.46 267.919 24.8448 267.919C24.5896 267.919 24.2888 267.878 23.9424 267.796C23.6006 267.718 23.2634 267.584 22.9307 267.393C22.6026 267.206 22.3269 266.953 22.1036 266.634L22.7666 265.882C23.0765 266.256 23.4001 266.515 23.7373 266.661C24.0791 266.807 24.4164 266.88 24.7491 266.88C25.1501 266.88 25.4965 266.805 25.7881 266.654C26.0798 266.504 26.3054 266.281 26.4649 265.984C26.6289 265.693 26.711 265.333 26.711 264.904V259.23L26.8272 257.604ZM21.7344 261.384V261.24C21.7344 260.675 21.8005 260.162 21.9327 259.702C22.0694 259.237 22.2631 258.839 22.5137 258.506C22.7689 258.173 23.0765 257.918 23.4366 257.74C23.7966 257.558 24.2022 257.467 24.6534 257.467C25.1182 257.467 25.5238 257.549 25.8702 257.713C26.2211 257.872 26.5173 258.107 26.7588 258.417C27.0049 258.722 27.1986 259.091 27.3399 259.524C27.4812 259.957 27.5791 260.447 27.6338 260.994V261.623C27.5837 262.165 27.4857 262.653 27.3399 263.086C27.1986 263.519 27.0049 263.888 26.7588 264.193C26.5173 264.499 26.2211 264.733 25.8702 264.897C25.5192 265.057 25.1091 265.137 24.6397 265.137C24.1976 265.137 23.7966 265.043 23.4366 264.856C23.0811 264.67 22.7758 264.408 22.5205 264.07C22.2653 263.733 22.0694 263.337 21.9327 262.881C21.8005 262.421 21.7344 261.922 21.7344 261.384ZM22.9991 261.24V261.384C22.9991 261.753 23.0355 262.099 23.1084 262.423C23.1859 262.746 23.3021 263.031 23.4571 263.277C23.6166 263.523 23.8194 263.717 24.0655 263.858C24.3116 263.995 24.6055 264.063 24.9473 264.063C25.3666 264.063 25.7129 263.975 25.9864 263.797C26.2598 263.619 26.4763 263.384 26.6358 263.093C26.7998 262.801 26.9274 262.484 27.0186 262.143V260.495C26.9685 260.244 26.891 260.003 26.7862 259.771C26.6859 259.534 26.5537 259.324 26.3897 259.142C26.2302 258.955 26.0319 258.807 25.795 258.697C25.558 258.588 25.28 258.533 24.961 258.533C24.6146 258.533 24.3161 258.606 24.0655 258.752C23.8194 258.893 23.6166 259.089 23.4571 259.34C23.3021 259.586 23.1859 259.873 23.1084 260.201C23.0355 260.525 22.9991 260.871 22.9991 261.24ZM37.8715 261.097H35.2123V260.023H37.8715C38.3865 260.023 38.8034 259.941 39.1225 259.777C39.4415 259.613 39.6739 259.385 39.8197 259.094C39.9701 258.802 40.0453 258.469 40.0453 258.096C40.0453 257.754 39.9701 257.433 39.8197 257.132C39.6739 256.831 39.4415 256.59 39.1225 256.407C38.8034 256.22 38.3865 256.127 37.8715 256.127H35.5199V265H34.2006V255.047H37.8715C38.6234 255.047 39.2592 255.177 39.7787 255.437C40.2982 255.696 40.6924 256.056 40.9613 256.517C41.2302 256.972 41.3646 257.494 41.3646 258.082C41.3646 258.72 41.2302 259.265 40.9613 259.716C40.6924 260.167 40.2982 260.511 39.7787 260.748C39.2592 260.98 38.6234 261.097 37.8715 261.097ZM42.7305 261.384V261.227C42.7305 260.693 42.808 260.199 42.963 259.743C43.1179 259.283 43.3412 258.884 43.6329 258.547C43.9246 258.205 44.2777 257.941 44.6925 257.754C45.1072 257.562 45.572 257.467 46.087 257.467C46.6065 257.467 47.0736 257.562 47.4884 257.754C47.9076 257.941 48.2631 258.205 48.5548 258.547C48.851 258.884 49.0766 259.283 49.2315 259.743C49.3865 260.199 49.4639 260.693 49.4639 261.227V261.384C49.4639 261.917 49.3865 262.411 49.2315 262.867C49.0766 263.323 48.851 263.722 48.5548 264.063C48.2631 264.401 47.9099 264.665 47.4952 264.856C47.085 265.043 46.6202 265.137 46.1007 265.137C45.5811 265.137 45.114 265.043 44.6993 264.856C44.2846 264.665 43.9291 264.401 43.6329 264.063C43.3412 263.722 43.1179 263.323 42.963 262.867C42.808 262.411 42.7305 261.917 42.7305 261.384ZM43.9952 261.227V261.384C43.9952 261.753 44.0385 262.102 44.1251 262.43C44.2117 262.753 44.3415 263.04 44.5147 263.291C44.6925 263.542 44.9135 263.74 45.1778 263.886C45.4421 264.027 45.7498 264.098 46.1007 264.098C46.447 264.098 46.7501 264.027 47.0098 263.886C47.2742 263.74 47.4929 263.542 47.6661 263.291C47.8393 263.04 47.9692 262.753 48.0557 262.43C48.1469 262.102 48.1925 261.753 48.1925 261.384V261.227C48.1925 260.862 48.1469 260.518 48.0557 260.194C47.9692 259.866 47.837 259.577 47.6593 259.326C47.4861 259.071 47.2673 258.87 47.003 258.725C46.7432 258.579 46.4379 258.506 46.087 258.506C45.7406 258.506 45.4353 258.579 45.171 258.725C44.9112 258.87 44.6925 259.071 44.5147 259.326C44.3415 259.577 44.2117 259.866 44.1251 260.194C44.0385 260.518 43.9952 260.862 43.9952 261.227ZM55.6765 263.038C55.6765 262.856 55.6355 262.687 55.5535 262.532C55.476 262.373 55.3142 262.229 55.0681 262.102C54.8266 261.969 54.462 261.855 53.9744 261.76C53.5642 261.673 53.1928 261.571 52.8601 261.452C52.532 261.334 52.2517 261.19 52.0193 261.021C51.7914 260.853 51.616 260.655 51.4929 260.427C51.3699 260.199 51.3084 259.932 51.3084 259.627C51.3084 259.335 51.3722 259.06 51.4998 258.8C51.6319 258.54 51.8165 258.31 52.0535 258.109C52.295 257.909 52.5844 257.752 52.9216 257.638C53.2589 257.524 53.6349 257.467 54.0496 257.467C54.642 257.467 55.1479 257.572 55.5672 257.781C55.9864 257.991 56.3077 258.271 56.531 258.622C56.7543 258.968 56.866 259.354 56.866 259.777H55.6013C55.6013 259.572 55.5398 259.374 55.4168 259.183C55.2983 258.987 55.1228 258.825 54.8904 258.697C54.6625 258.57 54.3823 258.506 54.0496 258.506C53.6987 258.506 53.4138 258.561 53.1951 258.67C52.9809 258.775 52.8237 258.909 52.7234 259.073C52.6277 259.237 52.5798 259.41 52.5798 259.593C52.5798 259.729 52.6026 259.853 52.6482 259.962C52.6983 260.067 52.7849 260.165 52.908 260.256C53.031 260.342 53.2042 260.424 53.4275 260.502C53.6508 260.579 53.9356 260.657 54.282 260.734C54.8881 260.871 55.3871 261.035 55.7791 261.227C56.171 261.418 56.4627 261.653 56.6541 261.931C56.8455 262.209 56.9412 262.546 56.9412 262.942C56.9412 263.266 56.8728 263.562 56.7361 263.831C56.6039 264.1 56.4102 264.332 56.155 264.528C55.9044 264.72 55.6036 264.87 55.2527 264.979C54.9063 265.084 54.5167 265.137 54.0838 265.137C53.4321 265.137 52.8806 265.021 52.4295 264.788C51.9783 264.556 51.6365 264.255 51.4041 263.886C51.1716 263.517 51.0554 263.127 51.0554 262.717H52.3269C52.3451 263.063 52.4454 263.339 52.6277 263.544C52.81 263.744 53.0333 263.888 53.2976 263.975C53.5619 264.057 53.824 264.098 54.0838 264.098C54.4301 264.098 54.7195 264.052 54.9519 263.961C55.1889 263.87 55.3689 263.744 55.492 263.585C55.615 263.425 55.6765 263.243 55.6765 263.038ZM62.019 257.604V258.574H58.02V257.604H62.019ZM59.3735 255.806H60.6381V263.168C60.6381 263.419 60.6769 263.608 60.7543 263.735C60.8318 263.863 60.9321 263.947 61.0551 263.988C61.1782 264.029 61.3103 264.05 61.4516 264.05C61.5564 264.05 61.6658 264.041 61.7797 264.022C61.8982 264 61.9871 263.981 62.0463 263.968L62.0532 265C61.9529 265.032 61.8207 265.062 61.6567 265.089C61.4972 265.121 61.3035 265.137 61.0756 265.137C60.7657 265.137 60.4809 265.075 60.2211 264.952C59.9614 264.829 59.754 264.624 59.5991 264.337C59.4487 264.045 59.3735 263.653 59.3735 263.161V255.806Z" fill="#6C8989"/>
<path d="M8.63281 341.172V342.359H0.414062V341.508L5.50781 333.625H6.6875L5.42188 335.906L2.05469 341.172H8.63281ZM7.04688 333.625V345H5.60156V333.625H7.04688ZM17.4059 338.406V340.141C17.4059 341.073 17.3226 341.859 17.1559 342.5C16.9893 343.141 16.7497 343.656 16.4372 344.047C16.1247 344.438 15.7471 344.721 15.3044 344.898C14.8669 345.07 14.3721 345.156 13.82 345.156C13.3825 345.156 12.9789 345.102 12.6091 344.992C12.2393 344.883 11.9059 344.708 11.6091 344.469C11.3174 344.224 11.0674 343.906 10.8591 343.516C10.6507 343.125 10.4919 342.651 10.3825 342.094C10.2731 341.536 10.2184 340.885 10.2184 340.141V338.406C10.2184 337.474 10.3018 336.693 10.4684 336.062C10.6403 335.432 10.8825 334.927 11.195 334.547C11.5075 334.161 11.8825 333.885 12.32 333.719C12.7627 333.552 13.2575 333.469 13.8044 333.469C14.2471 333.469 14.6533 333.523 15.0231 333.633C15.3981 333.737 15.7315 333.906 16.0231 334.141C16.3148 334.37 16.5622 334.677 16.7653 335.062C16.9736 335.443 17.1325 335.909 17.2419 336.461C17.3512 337.013 17.4059 337.661 17.4059 338.406ZM15.9528 340.375V338.164C15.9528 337.654 15.9216 337.206 15.8591 336.82C15.8018 336.43 15.7158 336.096 15.6012 335.82C15.4867 335.544 15.3408 335.32 15.1637 335.148C14.9919 334.977 14.7914 334.852 14.5622 334.773C14.3382 334.69 14.0856 334.648 13.8044 334.648C13.4606 334.648 13.1559 334.714 12.8903 334.844C12.6247 334.969 12.4007 335.169 12.2184 335.445C12.0414 335.721 11.9059 336.083 11.8122 336.531C11.7184 336.979 11.6716 337.523 11.6716 338.164V340.375C11.6716 340.885 11.7002 341.336 11.7575 341.727C11.82 342.117 11.9111 342.456 12.0309 342.742C12.1507 343.023 12.2966 343.255 12.4684 343.438C12.6403 343.62 12.8382 343.755 13.0622 343.844C13.2914 343.927 13.544 343.969 13.82 343.969C14.1742 343.969 14.4841 343.901 14.7497 343.766C15.0153 343.63 15.2367 343.419 15.4137 343.133C15.596 342.841 15.7315 342.469 15.82 342.016C15.9085 341.557 15.9528 341.01 15.9528 340.375ZM27.2728 341.172V342.359H19.0541V341.508L24.1478 333.625H25.3275L24.0619 335.906L20.6947 341.172H27.2728ZM25.6869 333.625V345H24.2416V333.625H25.6869Z" fill="#6C8989"/>
<path d="M4.83984 55.9287L1.54492 65H0.198242L3.99219 55.0469H4.86035L4.83984 55.9287ZM7.60156 65L4.2998 55.9287L4.2793 55.0469H5.14746L8.95508 65H7.60156ZM7.43066 61.3154V62.3955H1.83887V61.3154H7.43066ZM10.4098 54.5H11.6813V63.5645L11.572 65H10.4098V54.5ZM16.6784 61.2402V61.3838C16.6784 61.9215 16.6146 62.4206 16.487 62.8809C16.3594 63.3366 16.1725 63.7331 15.9264 64.0703C15.6804 64.4076 15.3796 64.6696 15.0241 64.8564C14.6686 65.0433 14.2608 65.1367 13.8005 65.1367C13.3311 65.1367 12.9186 65.057 12.5632 64.8975C12.2123 64.7334 11.916 64.4987 11.6745 64.1934C11.433 63.888 11.2393 63.5189 11.0934 63.0859C10.9522 62.653 10.8542 62.1654 10.7995 61.623V60.9941C10.8542 60.4473 10.9522 59.9574 11.0934 59.5244C11.2393 59.0915 11.433 58.7223 11.6745 58.417C11.916 58.1071 12.2123 57.8724 12.5632 57.7129C12.9141 57.5488 13.322 57.4668 13.7868 57.4668C14.2516 57.4668 14.6641 57.5579 15.0241 57.7402C15.3841 57.918 15.6849 58.1732 15.9264 58.5059C16.1725 58.8385 16.3594 59.2373 16.487 59.7021C16.6146 60.1624 16.6784 60.6751 16.6784 61.2402ZM15.4069 61.3838V61.2402C15.4069 60.8711 15.3727 60.5247 15.3044 60.2012C15.236 59.873 15.1266 59.5859 14.9762 59.3398C14.8259 59.0892 14.6276 58.8932 14.3815 58.752C14.1354 58.6061 13.8324 58.5332 13.4723 58.5332C13.1533 58.5332 12.8753 58.5879 12.6384 58.6973C12.4059 58.8066 12.2077 58.9548 12.0436 59.1416C11.8796 59.3239 11.7451 59.5335 11.6403 59.7705C11.5401 60.0029 11.4649 60.2445 11.4147 60.4951V62.1426C11.4876 62.4616 11.6061 62.7692 11.7702 63.0654C11.9388 63.3571 12.1621 63.5964 12.4401 63.7832C12.7227 63.9701 13.0713 64.0635 13.486 64.0635C13.8278 64.0635 14.1195 63.9951 14.361 63.8584C14.6071 63.7171 14.8054 63.5234 14.9557 63.2773C15.1107 63.0312 15.2246 62.7464 15.2975 62.4229C15.3705 62.0993 15.4069 61.7529 15.4069 61.3838ZM18.263 61.3838V61.2266C18.263 60.6934 18.3405 60.1989 18.4955 59.7432C18.6504 59.2829 18.8737 58.8841 19.1654 58.5469C19.4571 58.2051 19.8102 57.9408 20.225 57.7539C20.6397 57.5625 21.1045 57.4668 21.6195 57.4668C22.139 57.4668 22.6061 57.5625 23.0209 57.7539C23.4401 57.9408 23.7956 58.2051 24.0873 58.5469C24.3835 58.8841 24.6091 59.2829 24.764 59.7432C24.919 60.1989 24.9964 60.6934 24.9964 61.2266V61.3838C24.9964 61.917 24.919 62.4115 24.764 62.8672C24.6091 63.3229 24.3835 63.7217 24.0873 64.0635C23.7956 64.4007 23.4424 64.665 23.0277 64.8564C22.6175 65.0433 22.1527 65.1367 21.6332 65.1367C21.1136 65.1367 20.6465 65.0433 20.2318 64.8564C19.8171 64.665 19.4616 64.4007 19.1654 64.0635C18.8737 63.7217 18.6504 63.3229 18.4955 62.8672C18.3405 62.4115 18.263 61.917 18.263 61.3838ZM19.5277 61.2266V61.3838C19.5277 61.7529 19.571 62.1016 19.6576 62.4297C19.7442 62.7533 19.874 63.0404 20.0472 63.291C20.225 63.5417 20.446 63.7399 20.7103 63.8857C20.9746 64.027 21.2823 64.0977 21.6332 64.0977C21.9795 64.0977 22.2826 64.027 22.5423 63.8857C22.8067 63.7399 23.0254 63.5417 23.1986 63.291C23.3718 63.0404 23.5017 62.7533 23.5882 62.4297C23.6794 62.1016 23.725 61.7529 23.725 61.3838V61.2266C23.725 60.862 23.6794 60.5179 23.5882 60.1943C23.5017 59.8662 23.3695 59.5768 23.1918 59.3262C23.0186 59.071 22.7998 58.8704 22.5355 58.7246C22.2757 58.5788 21.9704 58.5059 21.6195 58.5059C21.2731 58.5059 20.9678 58.5788 20.7035 58.7246C20.4437 58.8704 20.225 59.071 20.0472 59.3262C19.874 59.5768 19.7442 59.8662 19.6576 60.1943C19.571 60.5179 19.5277 60.862 19.5277 61.2266ZM31.4278 63.291V57.6035H32.6993V65H31.4893L31.4278 63.291ZM31.667 61.7324L32.1934 61.7188C32.1934 62.2109 32.141 62.6667 32.0362 63.0859C31.9359 63.5007 31.7718 63.8607 31.544 64.166C31.3161 64.4714 31.0176 64.7106 30.6485 64.8838C30.2793 65.0524 29.8304 65.1367 29.3018 65.1367C28.9418 65.1367 28.6114 65.0843 28.3106 64.9795C28.0144 64.8747 27.7592 64.7129 27.545 64.4941C27.3308 64.2754 27.1644 63.9906 27.0459 63.6396C26.932 63.2887 26.875 62.8672 26.875 62.375V57.6035H28.1397V62.3887C28.1397 62.7214 28.1761 62.9971 28.2491 63.2158C28.3265 63.43 28.4291 63.6009 28.5567 63.7285C28.6888 63.8516 28.8347 63.9382 28.9942 63.9883C29.1582 64.0384 29.3269 64.0635 29.5 64.0635C30.0378 64.0635 30.4639 63.9609 30.7784 63.7559C31.0928 63.5462 31.3184 63.266 31.4551 62.915C31.5964 62.5596 31.667 62.1654 31.667 61.7324ZM38.0437 57.6035V58.5742H34.0446V57.6035H38.0437ZM35.3982 55.8057H36.6628V63.168C36.6628 63.4186 36.7015 63.6077 36.779 63.7354C36.8565 63.863 36.9568 63.9473 37.0798 63.9883C37.2029 64.0293 37.335 64.0498 37.4763 64.0498C37.5811 64.0498 37.6905 64.0407 37.8044 64.0225C37.9229 63.9997 38.0118 63.9814 38.071 63.9678L38.0779 65C37.9776 65.0319 37.8454 65.0615 37.6814 65.0889C37.5219 65.1208 37.3282 65.1367 37.1003 65.1367C36.7904 65.1367 36.5056 65.0752 36.2458 64.9521C35.9861 64.8291 35.7787 64.624 35.6237 64.3369C35.4734 64.0452 35.3982 63.6533 35.3982 63.1611V55.8057ZM47.6593 54.9922V65H46.3946V56.5713L43.8448 57.501V56.3594L47.461 54.9922H47.6593Z" fill="#6C8989"/>
<path d="M5.03906 220.012H2.33643L2.32178 218.877H4.77539C5.18066 218.877 5.53467 218.809 5.8374 218.672C6.14014 218.535 6.37451 218.34 6.54053 218.086C6.71143 217.827 6.79688 217.52 6.79688 217.163C6.79688 216.772 6.72119 216.455 6.56982 216.211C6.42334 215.962 6.19629 215.781 5.88867 215.669C5.58594 215.552 5.2002 215.493 4.73145 215.493H2.65137V225H1.23779V214.336H4.73145C5.27832 214.336 5.7666 214.392 6.19629 214.504C6.62598 214.612 6.98975 214.783 7.2876 215.017C7.59033 215.247 7.81982 215.54 7.97607 215.896C8.13232 216.252 8.21045 216.68 8.21045 217.178C8.21045 217.617 8.09814 218.015 7.87354 218.372C7.64893 218.723 7.33643 219.011 6.93604 219.236C6.54053 219.46 6.07666 219.604 5.54443 219.668L5.03906 220.012ZM4.97314 225H1.77979L2.57812 223.85H4.97314C5.42236 223.85 5.80322 223.772 6.11572 223.616C6.43311 223.459 6.6748 223.24 6.84082 222.957C7.00684 222.668 7.08984 222.329 7.08984 221.938C7.08984 221.543 7.01904 221.201 6.87744 220.913C6.73584 220.625 6.51367 220.403 6.21094 220.247C5.9082 220.09 5.51758 220.012 5.03906 220.012H3.0249L3.03955 218.877H5.79346L6.09375 219.287C6.60645 219.331 7.04102 219.478 7.39746 219.727C7.75391 219.971 8.0249 220.283 8.21045 220.664C8.40088 221.045 8.49609 221.465 8.49609 221.924C8.49609 222.588 8.34961 223.149 8.05664 223.608C7.76855 224.062 7.36084 224.409 6.8335 224.648C6.30615 224.883 5.68604 225 4.97314 225ZM12.1706 213.75V225H10.8083V213.75H12.1706ZM14.307 221.125V220.957C14.307 220.386 14.39 219.856 14.556 219.368C14.722 218.875 14.9613 218.447 15.2738 218.086C15.5863 217.72 15.9647 217.437 16.409 217.236C16.8534 217.031 17.3514 216.929 17.9032 216.929C18.4598 216.929 18.9603 217.031 19.4046 217.236C19.8539 217.437 20.2347 217.72 20.5472 218.086C20.8646 218.447 21.1063 218.875 21.2723 219.368C21.4383 219.856 21.5213 220.386 21.5213 220.957V221.125C21.5213 221.697 21.4383 222.227 21.2723 222.715C21.1063 223.203 20.8646 223.63 20.5472 223.997C20.2347 224.358 19.8563 224.641 19.412 224.846C18.9725 225.046 18.4745 225.146 17.9178 225.146C17.3612 225.146 16.8607 225.046 16.4164 224.846C15.972 224.641 15.5912 224.358 15.2738 223.997C14.9613 223.63 14.722 223.203 14.556 222.715C14.39 222.227 14.307 221.697 14.307 221.125ZM15.662 220.957V221.125C15.662 221.521 15.7084 221.895 15.8011 222.246C15.8939 222.593 16.0331 222.9 16.2186 223.169C16.409 223.438 16.6459 223.65 16.9291 223.806C17.2123 223.958 17.5419 224.033 17.9178 224.033C18.2889 224.033 18.6136 223.958 18.892 223.806C19.1752 223.65 19.4095 223.438 19.5951 223.169C19.7806 222.9 19.9198 222.593 20.0126 222.246C20.1102 221.895 20.159 221.521 20.159 221.125V220.957C20.159 220.566 20.1102 220.198 20.0126 219.851C19.9198 219.5 19.7782 219.189 19.5878 218.921C19.4022 218.647 19.1678 218.433 18.8846 218.276C18.6063 218.12 18.2792 218.042 17.9032 218.042C17.5321 218.042 17.2049 218.12 16.9217 218.276C16.6434 218.433 16.409 218.647 16.2186 218.921C16.0331 219.189 15.8939 219.5 15.8011 219.851C15.7084 220.198 15.662 220.566 15.662 220.957ZM28.6748 217.075H29.9053V224.832C29.9053 225.53 29.7637 226.125 29.4805 226.619C29.1973 227.112 28.8018 227.485 28.294 227.739C27.7911 227.998 27.21 228.127 26.5508 228.127C26.2774 228.127 25.9551 228.083 25.584 227.996C25.2178 227.913 24.8565 227.769 24.5 227.563C24.1485 227.363 23.8531 227.092 23.6138 226.75L24.3243 225.945C24.6563 226.345 25.003 226.624 25.3643 226.78C25.7305 226.936 26.0918 227.014 26.4483 227.014C26.878 227.014 27.2491 226.934 27.5616 226.772C27.8741 226.611 28.1158 226.372 28.2867 226.055C28.4624 225.742 28.5503 225.356 28.5503 224.897V218.818L28.6748 217.075ZM23.2183 221.125V220.972C23.2183 220.366 23.2891 219.817 23.4307 219.324C23.5772 218.826 23.7847 218.398 24.0533 218.042C24.3267 217.686 24.6563 217.412 25.042 217.222C25.4278 217.026 25.8623 216.929 26.3457 216.929C26.8438 216.929 27.2784 217.017 27.6495 217.192C28.0254 217.363 28.3428 217.615 28.6016 217.947C28.8653 218.274 29.0728 218.669 29.2242 219.133C29.3755 219.597 29.4805 220.122 29.5391 220.708V221.382C29.4854 221.963 29.3804 222.485 29.2242 222.949C29.0728 223.413 28.8653 223.809 28.6016 224.136C28.3428 224.463 28.0254 224.714 27.6495 224.89C27.2735 225.061 26.834 225.146 26.3311 225.146C25.8575 225.146 25.4278 225.046 25.042 224.846C24.6612 224.646 24.334 224.365 24.0606 224.004C23.7871 223.643 23.5772 223.218 23.4307 222.729C23.2891 222.236 23.2183 221.702 23.2183 221.125ZM24.5733 220.972V221.125C24.5733 221.521 24.6123 221.892 24.6905 222.239C24.7735 222.585 24.898 222.891 25.064 223.154C25.2349 223.418 25.4522 223.625 25.7159 223.777C25.9795 223.923 26.2945 223.997 26.6607 223.997C27.1099 223.997 27.481 223.901 27.774 223.711C28.0669 223.521 28.2989 223.269 28.4698 222.957C28.6455 222.644 28.7823 222.305 28.8799 221.938V220.173C28.8262 219.905 28.7432 219.646 28.6309 219.397C28.5235 219.143 28.3819 218.918 28.2061 218.723C28.0352 218.523 27.8228 218.364 27.5689 218.247C27.315 218.13 27.0171 218.071 26.6753 218.071C26.3042 218.071 25.9844 218.149 25.7159 218.306C25.4522 218.457 25.2349 218.667 25.064 218.936C24.898 219.199 24.7735 219.507 24.6905 219.858C24.6123 220.205 24.5733 220.576 24.5733 220.972ZM43.1649 223.887V225H36.185V224.026L39.6786 220.137C40.1083 219.658 40.4403 219.253 40.6747 218.921C40.914 218.584 41.08 218.284 41.1728 218.02C41.2704 217.751 41.3192 217.478 41.3192 217.2C41.3192 216.848 41.246 216.531 41.0995 216.248C40.9579 215.959 40.7479 215.73 40.4696 215.559C40.1913 215.388 39.8544 215.303 39.4589 215.303C38.9853 215.303 38.5897 215.396 38.2724 215.581C37.9599 215.762 37.7255 216.016 37.5692 216.343C37.413 216.67 37.3349 217.046 37.3349 217.471H35.9799C35.9799 216.87 36.1117 216.321 36.3754 215.823C36.6391 215.325 37.0297 214.929 37.5473 214.636C38.0648 214.338 38.702 214.189 39.4589 214.189C40.1327 214.189 40.7089 214.309 41.1874 214.548C41.6659 214.783 42.0321 215.115 42.286 215.544C42.5448 215.969 42.6742 216.467 42.6742 217.039C42.6742 217.351 42.6205 217.668 42.5131 217.991C42.4105 218.308 42.2665 218.625 42.081 218.943C41.9003 219.26 41.6879 219.573 41.4437 219.88C41.2045 220.188 40.9481 220.491 40.6747 220.789L37.8183 223.887H43.1649Z" fill="#6C8989"/>
<path d="M4.82617 381.097H2.16699V380.023H4.82617C5.34115 380.023 5.75814 379.941 6.07715 379.777C6.39616 379.613 6.62858 379.385 6.77441 379.094C6.9248 378.802 7 378.469 7 378.096C7 377.754 6.9248 377.433 6.77441 377.132C6.62858 376.831 6.39616 376.59 6.07715 376.407C5.75814 376.22 5.34115 376.127 4.82617 376.127H2.47461V385H1.15527V375.047H4.82617C5.57812 375.047 6.21387 375.177 6.7334 375.437C7.25293 375.696 7.64714 376.056 7.91602 376.517C8.1849 376.972 8.31934 377.494 8.31934 378.082C8.31934 378.72 8.1849 379.265 7.91602 379.716C7.64714 380.167 7.25293 380.511 6.7334 380.748C6.21387 380.98 5.57812 381.097 4.82617 381.097ZM14.3952 383.735V379.928C14.3952 379.636 14.336 379.383 14.2175 379.169C14.1035 378.95 13.9304 378.782 13.6979 378.663C13.4655 378.545 13.1784 378.485 12.8366 378.485C12.5176 378.485 12.2373 378.54 11.9958 378.649C11.7588 378.759 11.572 378.902 11.4352 379.08C11.3031 379.258 11.237 379.449 11.237 379.654H9.97234C9.97234 379.39 10.0407 379.128 10.1774 378.868C10.3141 378.608 10.5101 378.374 10.7653 378.164C11.0251 377.95 11.335 377.781 11.695 377.658C12.0596 377.531 12.4652 377.467 12.9118 377.467C13.4496 377.467 13.9235 377.558 14.3337 377.74C14.7484 377.923 15.072 378.198 15.3044 378.567C15.5414 378.932 15.6598 379.39 15.6598 379.941V383.387C15.6598 383.633 15.6804 383.895 15.7214 384.173C15.7669 384.451 15.833 384.69 15.9196 384.891V385H14.6003C14.5365 384.854 14.4863 384.66 14.4499 384.419C14.4134 384.173 14.3952 383.945 14.3952 383.735ZM14.6139 380.516L14.6276 381.404H13.3493C12.9893 381.404 12.668 381.434 12.3854 381.493C12.1029 381.548 11.8659 381.632 11.6745 381.746C11.4831 381.86 11.3373 382.004 11.237 382.177C11.1367 382.345 11.0866 382.544 11.0866 382.771C11.0866 383.004 11.139 383.216 11.2438 383.407C11.3486 383.599 11.5059 383.751 11.7155 383.865C11.9297 383.975 12.1917 384.029 12.5016 384.029C12.889 384.029 13.2308 383.947 13.527 383.783C13.8233 383.619 14.058 383.419 14.2311 383.182C14.4089 382.945 14.5046 382.715 14.5182 382.491L15.0583 383.1C15.0264 383.291 14.9398 383.503 14.7985 383.735C14.6572 383.968 14.4681 384.191 14.2311 384.405C13.9987 384.615 13.7207 384.79 13.3971 384.932C13.0781 385.068 12.7181 385.137 12.3171 385.137C11.8158 385.137 11.376 385.039 10.9977 384.843C10.624 384.647 10.3324 384.385 10.1227 384.057C9.91766 383.724 9.81512 383.353 9.81512 382.942C9.81512 382.546 9.89259 382.197 10.0475 381.896C10.2025 381.591 10.4258 381.338 10.7175 381.138C11.0091 380.933 11.36 380.778 11.7702 380.673C12.1804 380.568 12.6384 380.516 13.1442 380.516H14.6139ZM22.2757 383.038C22.2757 382.856 22.2347 382.687 22.1527 382.532C22.0752 382.373 21.9134 382.229 21.6673 382.102C21.4258 381.969 21.0612 381.855 20.5736 381.76C20.1634 381.673 19.792 381.571 19.4593 381.452C19.1312 381.334 18.8509 381.19 18.6185 381.021C18.3907 380.853 18.2152 380.655 18.0921 380.427C17.9691 380.199 17.9076 379.932 17.9076 379.627C17.9076 379.335 17.9714 379.06 18.099 378.8C18.2311 378.54 18.4157 378.31 18.6527 378.109C18.8942 377.909 19.1836 377.752 19.5209 377.638C19.8581 377.524 20.2341 377.467 20.6488 377.467C21.2412 377.467 21.7471 377.572 22.1664 377.781C22.5856 377.991 22.9069 378.271 23.1302 378.622C23.3535 378.968 23.4652 379.354 23.4652 379.777H22.2005C22.2005 379.572 22.139 379.374 22.016 379.183C21.8975 378.987 21.722 378.825 21.4896 378.697C21.2617 378.57 20.9815 378.506 20.6488 378.506C20.2979 378.506 20.013 378.561 19.7943 378.67C19.5801 378.775 19.4229 378.909 19.3226 379.073C19.2269 379.237 19.1791 379.41 19.1791 379.593C19.1791 379.729 19.2018 379.853 19.2474 379.962C19.2976 380.067 19.3841 380.165 19.5072 380.256C19.6302 380.342 19.8034 380.424 20.0267 380.502C20.25 380.579 20.5349 380.657 20.8812 380.734C21.4873 380.871 21.9864 381.035 22.3783 381.227C22.7702 381.418 23.0619 381.653 23.2533 381.931C23.4447 382.209 23.5404 382.546 23.5404 382.942C23.5404 383.266 23.472 383.562 23.3353 383.831C23.2032 384.1 23.0095 384.332 22.7543 384.528C22.5036 384.72 22.2028 384.87 21.8519 384.979C21.5056 385.084 21.1159 385.137 20.683 385.137C20.0313 385.137 19.4798 385.021 19.0287 384.788C18.5775 384.556 18.2357 384.255 18.0033 383.886C17.7709 383.517 17.6546 383.127 17.6546 382.717H18.9261C18.9444 383.063 19.0446 383.339 19.2269 383.544C19.4092 383.744 19.6325 383.888 19.8968 383.975C20.1612 384.057 20.4232 384.098 20.683 384.098C21.0293 384.098 21.3187 384.052 21.5511 383.961C21.7881 383.87 21.9681 383.744 22.0912 383.585C22.2142 383.425 22.2757 383.243 22.2757 383.038ZM29.8282 383.038C29.8282 382.856 29.7871 382.687 29.7051 382.532C29.6276 382.373 29.4659 382.229 29.2198 382.102C28.9782 381.969 28.6136 381.855 28.126 381.76C27.7159 381.673 27.3444 381.571 27.0118 381.452C26.6836 381.334 26.4034 381.19 26.1709 381.021C25.9431 380.853 25.7676 380.655 25.6446 380.427C25.5215 380.199 25.46 379.932 25.46 379.627C25.46 379.335 25.5238 379.06 25.6514 378.8C25.7836 378.54 25.9681 378.31 26.2051 378.109C26.4467 377.909 26.736 377.752 27.0733 377.638C27.4105 377.524 27.7865 377.467 28.2012 377.467C28.7937 377.467 29.2995 377.572 29.7188 377.781C30.1381 377.991 30.4593 378.271 30.6827 378.622C30.906 378.968 31.0176 379.354 31.0176 379.777H29.753C29.753 379.572 29.6914 379.374 29.5684 379.183C29.4499 378.987 29.2745 378.825 29.042 378.697C28.8142 378.57 28.5339 378.506 28.2012 378.506C27.8503 378.506 27.5655 378.561 27.3467 378.67C27.1325 378.775 26.9753 378.909 26.875 379.073C26.7793 379.237 26.7315 379.41 26.7315 379.593C26.7315 379.729 26.7543 379.853 26.7998 379.962C26.85 380.067 26.9366 380.165 27.0596 380.256C27.1827 380.342 27.3558 380.424 27.5791 380.502C27.8024 380.579 28.0873 380.657 28.4336 380.734C29.0398 380.871 29.5388 381.035 29.9307 381.227C30.3226 381.418 30.6143 381.653 30.8057 381.931C30.9971 382.209 31.0928 382.546 31.0928 382.942C31.0928 383.266 31.0245 383.562 30.8877 383.831C30.7556 384.1 30.5619 384.332 30.3067 384.528C30.056 384.72 29.7552 384.87 29.4043 384.979C29.058 385.084 28.6683 385.137 28.2354 385.137C27.5837 385.137 27.0323 385.021 26.5811 384.788C26.1299 384.556 25.7881 384.255 25.5557 383.886C25.3233 383.517 25.2071 383.127 25.2071 382.717H26.4786C26.4968 383.063 26.597 383.339 26.7793 383.544C26.9616 383.744 27.1849 383.888 27.4493 383.975C27.7136 384.057 27.9756 384.098 28.2354 384.098C28.5817 384.098 28.8711 384.052 29.1036 383.961C29.3405 383.87 29.5205 383.744 29.6436 383.585C29.7666 383.425 29.8282 383.243 29.8282 383.038ZM34.947 383.688L36.8474 377.604H37.6814L37.5173 378.813L35.5827 385H34.7693L34.947 383.688ZM33.6687 377.604L35.2888 383.756L35.405 385H34.5505L32.404 377.604H33.6687ZM39.4997 383.708L41.0446 377.604H42.3025L40.156 385H39.3083L39.4997 383.708ZM37.8659 377.604L39.7253 383.585L39.9372 385H39.1306L37.1413 378.8L36.9773 377.604H37.8659ZM43.5863 381.384V381.227C43.5863 380.693 43.6638 380.199 43.8187 379.743C43.9737 379.283 44.197 378.884 44.4887 378.547C44.7803 378.205 45.1335 377.941 45.5482 377.754C45.963 377.562 46.4278 377.467 46.9428 377.467C47.4623 377.467 47.9294 377.562 48.3441 377.754C48.7634 377.941 49.1189 378.205 49.4105 378.547C49.7068 378.884 49.9324 379.283 50.0873 379.743C50.2423 380.199 50.3197 380.693 50.3197 381.227V381.384C50.3197 381.917 50.2423 382.411 50.0873 382.867C49.9324 383.323 49.7068 383.722 49.4105 384.063C49.1189 384.401 48.7657 384.665 48.351 384.856C47.9408 385.043 47.476 385.137 46.9564 385.137C46.4369 385.137 45.9698 385.043 45.5551 384.856C45.1404 384.665 44.7849 384.401 44.4887 384.063C44.197 383.722 43.9737 383.323 43.8187 382.867C43.6638 382.411 43.5863 381.917 43.5863 381.384ZM44.851 381.227V381.384C44.851 381.753 44.8943 382.102 44.9809 382.43C45.0674 382.753 45.1973 383.04 45.3705 383.291C45.5482 383.542 45.7693 383.74 46.0336 383.886C46.2979 384.027 46.6055 384.098 46.9564 384.098C47.3028 384.098 47.6059 384.027 47.8656 383.886C48.1299 383.74 48.3487 383.542 48.5219 383.291C48.6951 383.04 48.8249 382.753 48.9115 382.43C49.0027 382.102 49.0482 381.753 49.0482 381.384V381.227C49.0482 380.862 49.0027 380.518 48.9115 380.194C48.8249 379.866 48.6928 379.577 48.515 379.326C48.3419 379.071 48.1231 378.87 47.8588 378.725C47.599 378.579 47.2937 378.506 46.9428 378.506C46.5964 378.506 46.2911 378.579 46.0268 378.725C45.767 378.87 45.5482 379.071 45.3705 379.326C45.1973 379.577 45.0674 379.866 44.9809 380.194C44.8943 380.518 44.851 380.862 44.851 381.227ZM53.4903 378.766V385H52.2257V377.604H53.4561L53.4903 378.766ZM55.8009 377.562L55.794 378.738C55.6892 378.715 55.5889 378.702 55.4932 378.697C55.4021 378.688 55.2973 378.684 55.1788 378.684C54.8871 378.684 54.6296 378.729 54.4063 378.82C54.183 378.911 53.9939 379.039 53.8389 379.203C53.684 379.367 53.5609 379.563 53.4698 379.791C53.3832 380.014 53.3262 380.26 53.2989 380.529L52.9434 380.734C52.9434 380.288 52.9867 379.868 53.0733 379.477C53.1645 379.085 53.3035 378.738 53.4903 378.438C53.6772 378.132 53.9141 377.895 54.2012 377.727C54.4929 377.553 54.8393 377.467 55.2403 377.467C55.3315 377.467 55.4363 377.478 55.5548 377.501C55.6733 377.519 55.7553 377.54 55.8009 377.562ZM61.8152 383.564V374.5H63.0867V385H61.9246L61.8152 383.564ZM56.8386 381.384V381.24C56.8386 380.675 56.907 380.162 57.0437 379.702C57.185 379.237 57.3832 378.839 57.6384 378.506C57.8982 378.173 58.2058 377.918 58.5613 377.74C58.9213 377.558 59.3224 377.467 59.7644 377.467C60.2293 377.467 60.6349 377.549 60.9812 377.713C61.3321 377.872 61.6283 378.107 61.8699 378.417C62.116 378.722 62.3097 379.091 62.4509 379.524C62.5922 379.957 62.6902 380.447 62.7449 380.994V381.623C62.6948 382.165 62.5968 382.653 62.4509 383.086C62.3097 383.519 62.116 383.888 61.8699 384.193C61.6283 384.499 61.3321 384.733 60.9812 384.897C60.6303 385.057 60.2201 385.137 59.7507 385.137C59.3178 385.137 58.9213 385.043 58.5613 384.856C58.2058 384.67 57.8982 384.408 57.6384 384.07C57.3832 383.733 57.185 383.337 57.0437 382.881C56.907 382.421 56.8386 381.922 56.8386 381.384ZM58.1101 381.24V381.384C58.1101 381.753 58.1466 382.099 58.2195 382.423C58.297 382.746 58.4155 383.031 58.575 383.277C58.7345 383.523 58.9373 383.717 59.1834 383.858C59.4295 383.995 59.7234 384.063 60.0652 384.063C60.4845 384.063 60.8285 383.975 61.0974 383.797C61.3709 383.619 61.5896 383.384 61.7537 383.093C61.9177 382.801 62.0453 382.484 62.1365 382.143V380.495C62.0818 380.244 62.002 380.003 61.8972 379.771C61.797 379.534 61.6648 379.324 61.5007 379.142C61.3412 378.955 61.143 378.807 60.906 378.697C60.6736 378.588 60.3979 378.533 60.0789 378.533C59.7325 378.533 59.434 378.606 59.1834 378.752C58.9373 378.893 58.7345 379.089 58.575 379.34C58.4155 379.586 58.297 379.873 58.2195 380.201C58.1466 380.525 58.1101 380.871 58.1101 381.24Z" fill="#6C8989"/>
<path d="M5.18555 135.281L1.65527 145H0.212402L4.27734 134.336H5.20752L5.18555 135.281ZM8.14453 145L4.60693 135.281L4.58496 134.336H5.51514L9.59473 145H8.14453ZM7.96143 141.052V142.209H1.97021V141.052H7.96143ZM11.1305 133.75H12.4929V143.462L12.3757 145H11.1305V133.75ZM17.8469 140.972V141.125C17.8469 141.702 17.7785 142.236 17.6418 142.729C17.5051 143.218 17.3049 143.643 17.0412 144.004C16.7775 144.365 16.4553 144.646 16.0744 144.846C15.6935 145.046 15.2565 145.146 14.7634 145.146C14.2604 145.146 13.8185 145.061 13.4377 144.89C13.0617 144.714 12.7443 144.463 12.4855 144.136C12.2267 143.809 12.0192 143.413 11.863 142.949C11.7116 142.485 11.6066 141.963 11.548 141.382V140.708C11.6066 140.122 11.7116 139.597 11.863 139.133C12.0192 138.669 12.2267 138.274 12.4855 137.947C12.7443 137.615 13.0617 137.363 13.4377 137.192C13.8137 137.017 14.2507 136.929 14.7487 136.929C15.2468 136.929 15.6887 137.026 16.0744 137.222C16.4601 137.412 16.7824 137.686 17.0412 138.042C17.3049 138.398 17.5051 138.826 17.6418 139.324C17.7785 139.817 17.8469 140.366 17.8469 140.972ZM16.4846 141.125V140.972C16.4846 140.576 16.4479 140.205 16.3747 139.858C16.3014 139.507 16.1843 139.199 16.0231 138.936C15.862 138.667 15.6496 138.457 15.3859 138.306C15.1222 138.149 14.7975 138.071 14.4118 138.071C14.07 138.071 13.7721 138.13 13.5182 138.247C13.2692 138.364 13.0568 138.523 12.881 138.723C12.7053 138.918 12.5612 139.143 12.4489 139.397C12.3415 139.646 12.2609 139.905 12.2072 140.173V141.938C12.2853 142.28 12.4123 142.61 12.5881 142.927C12.7687 143.24 13.008 143.496 13.3058 143.696C13.6086 143.896 13.9821 143.997 14.4264 143.997C14.7927 143.997 15.1052 143.923 15.3639 143.777C15.6276 143.625 15.84 143.418 16.0012 143.154C16.1672 142.891 16.2892 142.585 16.3674 142.239C16.4455 141.892 16.4846 141.521 16.4846 141.125ZM19.5218 141.125V140.957C19.5218 140.386 19.6048 139.856 19.7709 139.368C19.9369 138.875 20.1761 138.447 20.4886 138.086C20.8011 137.72 21.1796 137.437 21.6239 137.236C22.0682 137.031 22.5663 136.929 23.118 136.929C23.6747 136.929 24.1752 137.031 24.6195 137.236C25.0687 137.437 25.4496 137.72 25.7621 138.086C26.0795 138.447 26.3212 138.875 26.4872 139.368C26.6532 139.856 26.7362 140.386 26.7362 140.957V141.125C26.7362 141.697 26.6532 142.227 26.4872 142.715C26.3212 143.203 26.0795 143.63 25.7621 143.997C25.4496 144.358 25.0712 144.641 24.6268 144.846C24.1874 145.046 23.6893 145.146 23.1327 145.146C22.576 145.146 22.0755 145.046 21.6312 144.846C21.1869 144.641 20.806 144.358 20.4886 143.997C20.1761 143.63 19.9369 143.203 19.7709 142.715C19.6048 142.227 19.5218 141.697 19.5218 141.125ZM20.8768 140.957V141.125C20.8768 141.521 20.9232 141.895 21.016 142.246C21.1087 142.593 21.2479 142.9 21.4335 143.169C21.6239 143.438 21.8607 143.65 22.1439 143.806C22.4271 143.958 22.7567 144.033 23.1327 144.033C23.5038 144.033 23.8285 143.958 24.1068 143.806C24.39 143.65 24.6244 143.438 24.8099 143.169C24.9955 142.9 25.1346 142.593 25.2274 142.246C25.3251 141.895 25.3739 141.521 25.3739 141.125V140.957C25.3739 140.566 25.3251 140.198 25.2274 139.851C25.1346 139.5 24.993 139.189 24.8026 138.921C24.6171 138.647 24.3827 138.433 24.0995 138.276C23.8212 138.12 23.494 138.042 23.118 138.042C22.7469 138.042 22.4198 138.12 22.1366 138.276C21.8583 138.433 21.6239 138.647 21.4335 138.921C21.2479 139.189 21.1087 139.5 21.016 139.851C20.9232 140.198 20.8768 140.566 20.8768 140.957ZM33.604 143.169V137.075H34.9663V145H33.67L33.604 143.169ZM33.8604 141.499L34.4244 141.484C34.4244 142.012 34.3682 142.5 34.2559 142.949C34.1485 143.394 33.9727 143.779 33.7286 144.106C33.4844 144.434 33.1646 144.69 32.7691 144.875C32.3736 145.056 31.8926 145.146 31.3262 145.146C30.9405 145.146 30.5865 145.09 30.2642 144.978C29.9468 144.866 29.6734 144.692 29.4439 144.458C29.2144 144.224 29.0362 143.918 28.9092 143.542C28.7871 143.167 28.7261 142.715 28.7261 142.188V137.075H30.0811V142.202C30.0811 142.559 30.1202 142.854 30.1983 143.088C30.2813 143.318 30.3912 143.501 30.5279 143.638C30.6695 143.77 30.8257 143.862 30.9966 143.916C31.1724 143.97 31.3531 143.997 31.5386 143.997C32.1148 143.997 32.5713 143.887 32.9082 143.667C33.2452 143.442 33.4869 143.142 33.6333 142.766C33.7847 142.385 33.8604 141.963 33.8604 141.499ZM40.6696 137.075V138.115H36.385V137.075H40.6696ZM37.8352 135.149H39.1902V143.037C39.1902 143.306 39.2317 143.508 39.3147 143.645C39.3977 143.782 39.5051 143.872 39.6369 143.916C39.7688 143.96 39.9104 143.982 40.0617 143.982C40.174 143.982 40.2912 143.972 40.4133 143.953C40.5403 143.928 40.6355 143.909 40.6989 143.894L40.7063 145C40.5988 145.034 40.4572 145.066 40.2815 145.095C40.1106 145.129 39.903 145.146 39.6589 145.146C39.3269 145.146 39.0217 145.081 38.7434 144.949C38.4651 144.817 38.2429 144.597 38.0769 144.29C37.9157 143.977 37.8352 143.557 37.8352 143.03V135.149ZM48.4508 139.001H49.4176C49.8912 139.001 50.2818 138.923 50.5894 138.767C50.9019 138.606 51.1339 138.389 51.2852 138.115C51.4415 137.837 51.5196 137.524 51.5196 137.178C51.5196 136.768 51.4512 136.423 51.3145 136.145C51.1778 135.867 50.9727 135.657 50.6993 135.515C50.4259 135.374 50.0792 135.303 49.6593 135.303C49.2784 135.303 48.9415 135.378 48.6485 135.53C48.3604 135.676 48.1334 135.886 47.9674 136.16C47.8062 136.433 47.7257 136.755 47.7257 137.126H46.3707C46.3707 136.584 46.5074 136.091 46.7808 135.647C47.0543 135.203 47.4376 134.849 47.9307 134.585C48.4288 134.321 49.005 134.189 49.6593 134.189C50.3038 134.189 50.8678 134.304 51.3512 134.534C51.8345 134.758 52.2105 135.095 52.4791 135.544C52.7476 135.989 52.8819 136.543 52.8819 137.207C52.8819 137.476 52.8184 137.764 52.6915 138.071C52.5694 138.374 52.3765 138.657 52.1129 138.921C51.8541 139.185 51.5172 139.402 51.1021 139.573C50.6871 139.739 50.189 139.822 49.608 139.822H48.4508V139.001ZM48.4508 140.115V139.302H49.608C50.2867 139.302 50.8482 139.382 51.2926 139.543C51.7369 139.705 52.086 139.919 52.3399 140.188C52.5987 140.457 52.7794 140.752 52.8819 141.074C52.9893 141.392 53.043 141.709 53.043 142.026C53.043 142.524 52.9576 142.966 52.7867 143.352C52.6207 143.738 52.3839 144.065 52.0762 144.333C51.7735 144.602 51.4171 144.805 51.0069 144.941C50.5968 145.078 50.15 145.146 49.6666 145.146C49.2027 145.146 48.7657 145.081 48.3555 144.949C47.9503 144.817 47.5914 144.626 47.2789 144.377C46.9664 144.124 46.7222 143.813 46.5465 143.447C46.3707 143.076 46.2828 142.654 46.2828 142.18H47.6378C47.6378 142.551 47.7183 142.876 47.8795 143.154C48.0455 143.433 48.2799 143.65 48.5826 143.806C48.8902 143.958 49.2515 144.033 49.6666 144.033C50.0816 144.033 50.4381 143.962 50.7359 143.821C51.0387 143.674 51.2706 143.455 51.4317 143.162C51.5977 142.869 51.6807 142.5 51.6807 142.056C51.6807 141.611 51.588 141.248 51.4024 140.964C51.2169 140.676 50.9532 140.464 50.6114 140.327C50.2745 140.186 49.8765 140.115 49.4176 140.115H48.4508Z" fill="#6C8989"/>
<path d="M5.17822 294.336V305H3.78662V294.336H5.17822ZM8.60596 294.336V295.493H0.366211V294.336H8.60596ZM12.8591 305.146C12.3073 305.146 11.8068 305.054 11.3576 304.868C10.9133 304.678 10.53 304.412 10.2077 304.07C9.89031 303.728 9.64617 303.323 9.47527 302.854C9.30437 302.385 9.21893 301.873 9.21893 301.316V301.008C9.21893 300.364 9.31414 299.79 9.50457 299.287C9.695 298.779 9.95379 298.35 10.2809 297.998C10.6081 297.646 10.9792 297.38 11.3942 297.2C11.8093 297.019 12.2389 296.929 12.6833 296.929C13.2497 296.929 13.738 297.026 14.1481 297.222C14.5632 297.417 14.9025 297.69 15.1662 298.042C15.4299 298.389 15.6252 298.799 15.7521 299.272C15.8791 299.741 15.9426 300.254 15.9426 300.811V301.418H10.0246V300.312H14.5876V300.21C14.568 299.858 14.4948 299.517 14.3679 299.185C14.2458 298.853 14.0505 298.579 13.7819 298.364C13.5134 298.149 13.1471 298.042 12.6833 298.042C12.3757 298.042 12.0925 298.108 11.8337 298.24C11.5749 298.367 11.3527 298.557 11.1672 298.811C10.9816 299.065 10.8376 299.375 10.735 299.741C10.6325 300.107 10.5812 300.53 10.5812 301.008V301.316C10.5812 301.692 10.6325 302.046 10.735 302.378C10.8425 302.705 10.9963 302.993 11.1965 303.242C11.4015 303.491 11.6481 303.687 11.9362 303.828C12.2292 303.97 12.5612 304.041 12.9323 304.041C13.4108 304.041 13.8161 303.943 14.1481 303.748C14.4802 303.552 14.7707 303.291 15.0197 302.964L15.84 303.616C15.6691 303.875 15.4518 304.121 15.1882 304.355C14.9245 304.59 14.5998 304.78 14.214 304.927C13.8332 305.073 13.3815 305.146 12.8591 305.146ZM22.5174 303.645V299.565C22.5174 299.253 22.454 298.982 22.327 298.752C22.2049 298.518 22.0194 298.337 21.7704 298.21C21.5213 298.083 21.2137 298.02 20.8475 298.02C20.5057 298.02 20.2054 298.079 19.9466 298.196C19.6927 298.313 19.4925 298.467 19.3461 298.657C19.2045 298.848 19.1337 299.053 19.1337 299.272H17.7787C17.7787 298.989 17.8519 298.708 17.9984 298.43C18.1449 298.152 18.3548 297.9 18.6283 297.676C18.9066 297.446 19.2386 297.266 19.6244 297.134C20.015 296.997 20.4496 296.929 20.9281 296.929C21.5043 296.929 22.0121 297.026 22.4515 297.222C22.8959 297.417 23.2425 297.712 23.4916 298.108C23.7455 298.499 23.8724 298.989 23.8724 299.58V303.271C23.8724 303.535 23.8944 303.816 23.9383 304.114C23.9872 304.412 24.058 304.668 24.1507 304.883V305H22.7372C22.6688 304.844 22.6151 304.636 22.576 304.377C22.537 304.114 22.5174 303.87 22.5174 303.645ZM22.7518 300.195L22.7665 301.147H21.3968C21.0111 301.147 20.6669 301.179 20.3641 301.243C20.0614 301.301 19.8075 301.392 19.6024 301.514C19.3973 301.636 19.2411 301.79 19.1337 301.975C19.0262 302.156 18.9725 302.368 18.9725 302.612C18.9725 302.861 19.0287 303.088 19.141 303.293C19.2533 303.499 19.4217 303.662 19.6463 303.784C19.8758 303.901 20.1566 303.96 20.4886 303.96C20.9037 303.96 21.2699 303.872 21.5873 303.696C21.9046 303.521 22.1561 303.306 22.3417 303.052C22.5321 302.798 22.6346 302.551 22.6493 302.312L23.2279 302.964C23.1937 303.169 23.1009 303.396 22.9496 303.645C22.7982 303.894 22.5956 304.133 22.3417 304.363C22.0926 304.587 21.7948 304.775 21.4481 304.927C21.1063 305.073 20.7206 305.146 20.2909 305.146C19.7538 305.146 19.2826 305.042 18.8773 304.832C18.4769 304.622 18.1644 304.341 17.9398 303.989C17.7201 303.633 17.6102 303.235 17.6102 302.795C17.6102 302.371 17.6932 301.997 17.8592 301.675C18.0253 301.348 18.2645 301.077 18.577 300.862C18.8895 300.642 19.2655 300.476 19.7049 300.364C20.1444 300.251 20.6351 300.195 21.1771 300.195H22.7518ZM27.6714 298.65V305H26.3091V297.075H27.5982L27.6714 298.65ZM27.3931 300.737L26.7632 300.715C26.7681 300.173 26.8389 299.673 26.9756 299.214C27.1123 298.75 27.315 298.347 27.5835 298.005C27.8521 297.664 28.1866 297.4 28.587 297.214C28.9873 297.024 29.4512 296.929 29.9786 296.929C30.3496 296.929 30.6914 296.982 31.0039 297.09C31.3164 297.192 31.5874 297.356 31.8169 297.581C32.0464 297.805 32.2246 298.093 32.3516 298.445C32.4786 298.796 32.542 299.221 32.542 299.719V305H31.187V299.785C31.187 299.37 31.1162 299.038 30.9746 298.789C30.8379 298.54 30.6426 298.359 30.3887 298.247C30.1348 298.13 29.837 298.071 29.4952 298.071C29.0948 298.071 28.7603 298.142 28.4917 298.284C28.2232 298.425 28.0083 298.621 27.8472 298.87C27.6861 299.119 27.5689 299.404 27.4956 299.727C27.4273 300.044 27.3931 300.381 27.3931 300.737ZM32.5274 299.99L31.6192 300.269C31.6241 299.834 31.6949 299.417 31.8316 299.016C31.9732 298.616 32.1758 298.259 32.4395 297.947C32.708 297.634 33.0376 297.388 33.4283 297.207C33.8189 297.021 34.2657 296.929 34.7686 296.929C35.1934 296.929 35.5694 296.985 35.8965 297.097C36.2286 297.209 36.5069 297.383 36.7315 297.617C36.961 297.847 37.1343 298.142 37.2515 298.503C37.3687 298.865 37.4273 299.294 37.4273 299.792V305H36.065V299.778C36.065 299.333 35.9942 298.989 35.8526 298.745C35.7159 298.496 35.5205 298.323 35.2666 298.225C35.0176 298.123 34.7198 298.071 34.3731 298.071C34.0752 298.071 33.8116 298.123 33.5821 298.225C33.3526 298.328 33.1597 298.469 33.0035 298.65C32.8472 298.826 32.7276 299.028 32.6446 299.258C32.5664 299.487 32.5274 299.731 32.5274 299.99ZM44.4906 294.336H45.8603L49.3539 303.03L52.8402 294.336H54.2172L49.8812 305H48.8119L44.4906 294.336ZM44.0438 294.336H45.2523L45.4501 300.84V305H44.0438V294.336ZM53.4481 294.336H54.6566V305H53.2504V300.84L53.4481 294.336ZM60.543 305.146C59.9913 305.146 59.4908 305.054 59.0416 304.868C58.5972 304.678 58.2139 304.412 57.8917 304.07C57.5743 303.728 57.3302 303.323 57.1593 302.854C56.9884 302.385 56.9029 301.873 56.9029 301.316V301.008C56.9029 300.364 56.9981 299.79 57.1886 299.287C57.379 298.779 57.6378 298.35 57.9649 297.998C58.2921 297.646 58.6632 297.38 59.0782 297.2C59.4932 297.019 59.9229 296.929 60.3673 296.929C60.9337 296.929 61.422 297.026 61.8321 297.222C62.2471 297.417 62.5865 297.69 62.8502 298.042C63.1138 298.389 63.3092 298.799 63.4361 299.272C63.5631 299.741 63.6265 300.254 63.6265 300.811V301.418H57.7086V300.312H62.2716V300.21C62.252 299.858 62.1788 299.517 62.0518 299.185C61.9298 298.853 61.7345 298.579 61.4659 298.364C61.1973 298.149 60.8311 298.042 60.3673 298.042C60.0596 298.042 59.7764 298.108 59.5177 298.24C59.2589 298.367 59.0367 298.557 58.8512 298.811C58.6656 299.065 58.5216 299.375 58.419 299.741C58.3165 300.107 58.2652 300.53 58.2652 301.008V301.316C58.2652 301.692 58.3165 302.046 58.419 302.378C58.5264 302.705 58.6803 302.993 58.8804 303.242C59.0855 303.491 59.3321 303.687 59.6202 303.828C59.9132 303.97 60.2452 304.041 60.6163 304.041C61.0948 304.041 61.5001 303.943 61.8321 303.748C62.1641 303.552 62.4547 303.291 62.7037 302.964L63.524 303.616C63.3531 303.875 63.1358 304.121 62.8721 304.355C62.6085 304.59 62.2838 304.78 61.898 304.927C61.5172 305.073 61.0655 305.146 60.543 305.146ZM66.8762 298.65V305H65.5139V297.075H66.803L66.8762 298.65ZM66.5979 300.737L65.968 300.715C65.9729 300.173 66.0437 299.673 66.1804 299.214C66.3171 298.75 66.5198 298.347 66.7883 298.005C67.0569 297.664 67.3914 297.4 67.7918 297.214C68.1921 297.024 68.656 296.929 69.1834 296.929C69.5545 296.929 69.8962 296.982 70.2087 297.09C70.5212 297.192 70.7922 297.356 71.0217 297.581C71.2512 297.805 71.4295 298.093 71.5564 298.445C71.6834 298.796 71.7468 299.221 71.7468 299.719V305H70.3919V299.785C70.3919 299.37 70.3211 299.038 70.1795 298.789C70.0427 298.54 69.8474 298.359 69.5935 298.247C69.3396 298.13 69.0418 298.071 68.7 298.071C68.2996 298.071 67.9651 298.142 67.6965 298.284C67.428 298.425 67.2131 298.621 67.052 298.87C66.8909 299.119 66.7737 299.404 66.7004 299.727C66.6321 300.044 66.5979 300.381 66.5979 300.737ZM71.7322 299.99L70.824 300.269C70.8289 299.834 70.8997 299.417 71.0364 299.016C71.178 298.616 71.3806 298.259 71.6443 297.947C71.9128 297.634 72.2424 297.388 72.6331 297.207C73.0237 297.021 73.4705 296.929 73.9734 296.929C74.3982 296.929 74.7742 296.985 75.1013 297.097C75.4334 297.209 75.7117 297.383 75.9363 297.617C76.1658 297.847 76.3391 298.142 76.4563 298.503C76.5735 298.865 76.6321 299.294 76.6321 299.792V305H75.2698V299.778C75.2698 299.333 75.199 298.989 75.0574 298.745C74.9207 298.496 74.7253 298.323 74.4714 298.225C74.2224 298.123 73.9246 298.071 73.5779 298.071C73.28 298.071 73.0164 298.123 72.7869 298.225C72.5574 298.328 72.3645 298.469 72.2083 298.65C72.052 298.826 71.9324 299.028 71.8494 299.258C71.7712 299.487 71.7322 299.731 71.7322 299.99ZM78.9955 293.75H80.3578V303.462L80.2407 305H78.9955V293.75ZM85.7119 300.972V301.125C85.7119 301.702 85.6435 302.236 85.5068 302.729C85.3701 303.218 85.1699 303.643 84.9062 304.004C84.6425 304.365 84.3203 304.646 83.9394 304.846C83.5585 305.046 83.1215 305.146 82.6284 305.146C82.1254 305.146 81.6835 305.061 81.3027 304.89C80.9267 304.714 80.6093 304.463 80.3505 304.136C80.0917 303.809 79.8842 303.413 79.728 302.949C79.5766 302.485 79.4716 301.963 79.413 301.382V300.708C79.4716 300.122 79.5766 299.597 79.728 299.133C79.8842 298.669 80.0917 298.274 80.3505 297.947C80.6093 297.615 80.9267 297.363 81.3027 297.192C81.6786 297.017 82.1157 296.929 82.6137 296.929C83.1118 296.929 83.5536 297.026 83.9394 297.222C84.3251 297.412 84.6474 297.686 84.9062 298.042C85.1699 298.398 85.3701 298.826 85.5068 299.324C85.6435 299.817 85.7119 300.366 85.7119 300.972ZM84.3495 301.125V300.972C84.3495 300.576 84.3129 300.205 84.2397 299.858C84.1664 299.507 84.0493 299.199 83.8881 298.936C83.727 298.667 83.5146 298.457 83.2509 298.306C82.9872 298.149 82.6625 298.071 82.2768 298.071C81.935 298.071 81.6371 298.13 81.3832 298.247C81.1342 298.364 80.9218 298.523 80.746 298.723C80.5703 298.918 80.4262 299.143 80.3139 299.397C80.2065 299.646 80.1259 299.905 80.0722 300.173V301.938C80.1503 302.28 80.2773 302.61 80.4531 302.927C80.6337 303.24 80.873 303.496 81.1708 303.696C81.4736 303.896 81.8471 303.997 82.2914 303.997C82.6577 303.997 82.9702 303.923 83.2289 303.777C83.4926 303.625 83.705 303.418 83.8661 303.154C84.0322 302.891 84.1542 302.585 84.2324 302.239C84.3105 301.892 84.3495 301.521 84.3495 301.125ZM91.0343 305.146C90.4825 305.146 89.982 305.054 89.5328 304.868C89.0885 304.678 88.7052 304.412 88.3829 304.07C88.0655 303.728 87.8214 303.323 87.6505 302.854C87.4796 302.385 87.3942 301.873 87.3942 301.316V301.008C87.3942 300.364 87.4894 299.79 87.6798 299.287C87.8702 298.779 88.129 298.35 88.4562 297.998C88.7833 297.646 89.1544 297.38 89.5695 297.2C89.9845 297.019 90.4142 296.929 90.8585 296.929C91.4249 296.929 91.9132 297.026 92.3234 297.222C92.7384 297.417 93.0778 297.69 93.3414 298.042C93.6051 298.389 93.8004 298.799 93.9274 299.272C94.0543 299.741 94.1178 300.254 94.1178 300.811V301.418H88.1998V300.312H92.7628V300.21C92.7433 299.858 92.67 299.517 92.5431 299.185C92.421 298.853 92.2257 298.579 91.9571 298.364C91.6886 298.149 91.3224 298.042 90.8585 298.042C90.5509 298.042 90.2677 298.108 90.0089 298.24C89.7501 298.367 89.5279 298.557 89.3424 298.811C89.1569 299.065 89.0128 299.375 88.9103 299.741C88.8077 300.107 88.7565 300.53 88.7565 301.008V301.316C88.7565 301.692 88.8077 302.046 88.9103 302.378C89.0177 302.705 89.1715 302.993 89.3717 303.242C89.5768 303.491 89.8234 303.687 90.1114 303.828C90.4044 303.97 90.7364 304.041 91.1075 304.041C91.5861 304.041 91.9913 303.943 92.3234 303.748C92.6554 303.552 92.9459 303.291 93.1949 302.964L94.0153 303.616C93.8444 303.875 93.6271 304.121 93.3634 304.355C93.0997 304.59 92.775 304.78 92.3893 304.927C92.0084 305.073 91.5568 305.146 91.0343 305.146ZM97.3748 298.32V305H96.0198V297.075H97.3382L97.3748 298.32ZM99.8504 297.031L99.8431 298.291C99.7308 298.267 99.6233 298.252 99.5208 298.247C99.4231 298.237 99.3108 298.232 99.1839 298.232C98.8714 298.232 98.5955 298.281 98.3562 298.379C98.117 298.477 97.9144 298.613 97.7483 298.789C97.5823 298.965 97.4505 299.175 97.3528 299.419C97.2601 299.658 97.199 299.922 97.1697 300.21L96.7889 300.43C96.7889 299.951 96.8353 299.502 96.928 299.082C97.0257 298.662 97.1746 298.291 97.3748 297.969C97.575 297.642 97.8289 297.388 98.1365 297.207C98.449 297.021 98.8201 296.929 99.2498 296.929C99.3475 296.929 99.4598 296.941 99.5867 296.965C99.7137 296.985 99.8016 297.007 99.8504 297.031Z" fill="#6C8989"/>
</svg>
